G04 EAGLE Gerber RS-274X export*
G75*
%MOMM*%
%FSLAX34Y34*%
%LPD*%
%INCopper Layer 15*%
%IPPOS*%
%AMOC8*
5,1,8,0,0,1.08239X$1,22.5*%
G01*
%ADD10C,1.244600*%
%ADD11C,1.120000*%
%ADD12C,1.400000*%
%ADD13C,4.016000*%
%ADD14C,1.288000*%
%ADD15C,3.220000*%
%ADD16C,0.654800*%

G36*
X23906Y2539D02*
X23906Y2539D01*
X23970Y2541D01*
X25234Y2541D01*
X25255Y2543D01*
X25344Y2546D01*
X26318Y2631D01*
X26318Y2630D01*
X26430Y2602D01*
X26540Y2565D01*
X26584Y2562D01*
X26626Y2551D01*
X26787Y2541D01*
X811413Y2541D01*
X811457Y2546D01*
X811500Y2544D01*
X811614Y2566D01*
X811729Y2581D01*
X811769Y2597D01*
X811813Y2605D01*
X811869Y2632D01*
X812856Y2546D01*
X812877Y2546D01*
X812966Y2541D01*
X814215Y2541D01*
X814232Y2536D01*
X814331Y2530D01*
X814351Y2527D01*
X814364Y2528D01*
X814393Y2526D01*
X816555Y2526D01*
X816640Y2537D01*
X816725Y2538D01*
X816860Y2565D01*
X816870Y2566D01*
X816874Y2568D01*
X816883Y2569D01*
X823470Y4334D01*
X823601Y4388D01*
X823732Y4437D01*
X823754Y4450D01*
X823765Y4455D01*
X823781Y4466D01*
X823870Y4521D01*
X829456Y8432D01*
X829560Y8527D01*
X829667Y8618D01*
X829683Y8638D01*
X829692Y8646D01*
X829703Y8662D01*
X829768Y8744D01*
X833679Y14330D01*
X833745Y14454D01*
X833814Y14577D01*
X833822Y14602D01*
X833828Y14611D01*
X833832Y14630D01*
X833866Y14730D01*
X835631Y21317D01*
X835642Y21402D01*
X835664Y21484D01*
X835672Y21621D01*
X835674Y21632D01*
X835673Y21636D01*
X835674Y21645D01*
X835674Y23807D01*
X835661Y23906D01*
X835659Y23975D01*
X835659Y25234D01*
X835657Y25255D01*
X835654Y25344D01*
X835569Y26318D01*
X835570Y26318D01*
X835598Y26430D01*
X835635Y26540D01*
X835638Y26584D01*
X835649Y26626D01*
X835659Y26787D01*
X835659Y633613D01*
X835654Y633657D01*
X835656Y633700D01*
X835634Y633814D01*
X835619Y633929D01*
X835603Y633969D01*
X835595Y634013D01*
X835568Y634069D01*
X835654Y635056D01*
X835654Y635077D01*
X835659Y635166D01*
X835659Y636415D01*
X835664Y636432D01*
X835670Y636532D01*
X835673Y636552D01*
X835672Y636565D01*
X835674Y636593D01*
X835674Y638755D01*
X835663Y638840D01*
X835662Y638925D01*
X835635Y639060D01*
X835634Y639070D01*
X835632Y639074D01*
X835631Y639083D01*
X833866Y645670D01*
X833812Y645801D01*
X833763Y645932D01*
X833750Y645954D01*
X833745Y645965D01*
X833734Y645981D01*
X833679Y646070D01*
X829768Y651656D01*
X829673Y651760D01*
X829582Y651867D01*
X829562Y651883D01*
X829554Y651892D01*
X829538Y651903D01*
X829456Y651968D01*
X823870Y655879D01*
X823745Y655945D01*
X823623Y656014D01*
X823599Y656022D01*
X823589Y656028D01*
X823569Y656032D01*
X823470Y656066D01*
X816883Y657831D01*
X816798Y657842D01*
X816715Y657864D01*
X816579Y657872D01*
X816568Y657874D01*
X816564Y657873D01*
X816555Y657874D01*
X814393Y657874D01*
X814294Y657861D01*
X814225Y657859D01*
X812966Y657859D01*
X812945Y657857D01*
X812856Y657854D01*
X811882Y657769D01*
X811882Y657770D01*
X811770Y657798D01*
X811660Y657835D01*
X811616Y657838D01*
X811574Y657849D01*
X811413Y657859D01*
X26787Y657859D01*
X26743Y657854D01*
X26700Y657856D01*
X26586Y657834D01*
X26471Y657819D01*
X26431Y657803D01*
X26387Y657795D01*
X26331Y657768D01*
X25344Y657854D01*
X25323Y657854D01*
X25234Y657859D01*
X23985Y657859D01*
X23968Y657864D01*
X23868Y657870D01*
X23848Y657873D01*
X23835Y657872D01*
X23807Y657874D01*
X21645Y657874D01*
X21560Y657863D01*
X21475Y657862D01*
X21340Y657835D01*
X21330Y657834D01*
X21326Y657832D01*
X21317Y657831D01*
X14730Y656066D01*
X14599Y656012D01*
X14468Y655963D01*
X14446Y655950D01*
X14435Y655945D01*
X14419Y655934D01*
X14330Y655879D01*
X8744Y651968D01*
X8640Y651873D01*
X8533Y651782D01*
X8517Y651762D01*
X8508Y651754D01*
X8497Y651738D01*
X8432Y651656D01*
X4521Y646070D01*
X4455Y645945D01*
X4386Y645823D01*
X4378Y645799D01*
X4372Y645789D01*
X4368Y645769D01*
X4334Y645670D01*
X2569Y639083D01*
X2558Y638998D01*
X2536Y638915D01*
X2528Y638779D01*
X2526Y638768D01*
X2527Y638764D01*
X2526Y638755D01*
X2526Y636593D01*
X2539Y636494D01*
X2541Y636425D01*
X2541Y635166D01*
X2543Y635145D01*
X2546Y635056D01*
X2631Y634082D01*
X2630Y634082D01*
X2602Y633970D01*
X2565Y633860D01*
X2562Y633816D01*
X2551Y633774D01*
X2541Y633613D01*
X2541Y26787D01*
X2546Y26743D01*
X2544Y26700D01*
X2566Y26586D01*
X2581Y26471D01*
X2597Y26431D01*
X2605Y26387D01*
X2632Y26331D01*
X2546Y25344D01*
X2546Y25323D01*
X2541Y25234D01*
X2541Y23985D01*
X2536Y23968D01*
X2530Y23868D01*
X2527Y23848D01*
X2528Y23835D01*
X2526Y23807D01*
X2526Y21645D01*
X2537Y21560D01*
X2538Y21475D01*
X2565Y21340D01*
X2566Y21330D01*
X2568Y21326D01*
X2569Y21317D01*
X4334Y14730D01*
X4388Y14599D01*
X4437Y14468D01*
X4450Y14446D01*
X4455Y14435D01*
X4466Y14419D01*
X4521Y14330D01*
X8432Y8744D01*
X8527Y8640D01*
X8618Y8533D01*
X8638Y8517D01*
X8646Y8508D01*
X8662Y8497D01*
X8744Y8432D01*
X14330Y4521D01*
X14455Y4455D01*
X14577Y4386D01*
X14601Y4378D01*
X14611Y4372D01*
X14631Y4368D01*
X14730Y4334D01*
X21317Y2569D01*
X21402Y2558D01*
X21485Y2536D01*
X21621Y2528D01*
X21632Y2526D01*
X21636Y2527D01*
X21645Y2526D01*
X23807Y2526D01*
X23906Y2539D01*
G37*
%LPC*%
G36*
X197907Y255986D02*
X197907Y255986D01*
X194686Y257320D01*
X192220Y259786D01*
X190886Y263007D01*
X190886Y266493D01*
X191297Y267484D01*
X191310Y267532D01*
X191331Y267577D01*
X191352Y267685D01*
X191381Y267791D01*
X191382Y267841D01*
X191391Y267890D01*
X191384Y267999D01*
X191386Y268109D01*
X191374Y268157D01*
X191371Y268207D01*
X191337Y268311D01*
X191312Y268418D01*
X191288Y268462D01*
X191273Y268509D01*
X191214Y268602D01*
X191163Y268699D01*
X191130Y268736D01*
X191103Y268778D01*
X191023Y268853D01*
X190949Y268935D01*
X190908Y268962D01*
X190871Y268996D01*
X190775Y269049D01*
X190683Y269109D01*
X190636Y269126D01*
X190593Y269150D01*
X190487Y269177D01*
X190383Y269213D01*
X190333Y269217D01*
X190285Y269229D01*
X190124Y269239D01*
X48910Y269239D01*
X48792Y269224D01*
X48673Y269217D01*
X48635Y269204D01*
X48594Y269199D01*
X48484Y269156D01*
X48371Y269119D01*
X48336Y269097D01*
X48299Y269082D01*
X48203Y269013D01*
X48102Y268949D01*
X48074Y268919D01*
X48041Y268896D01*
X47965Y268804D01*
X47884Y268717D01*
X47864Y268682D01*
X47839Y268651D01*
X47788Y268543D01*
X47730Y268439D01*
X47720Y268399D01*
X47703Y268363D01*
X47681Y268246D01*
X47651Y268131D01*
X47647Y268071D01*
X47643Y268051D01*
X47645Y268030D01*
X47641Y267970D01*
X47641Y264802D01*
X46188Y261296D01*
X43504Y258612D01*
X39998Y257159D01*
X36202Y257159D01*
X32696Y258612D01*
X30012Y261296D01*
X28559Y264802D01*
X28559Y268598D01*
X30012Y272104D01*
X32696Y274788D01*
X36202Y276241D01*
X39998Y276241D01*
X43504Y274788D01*
X44823Y273470D01*
X44932Y273385D01*
X45039Y273296D01*
X45058Y273288D01*
X45074Y273275D01*
X45201Y273220D01*
X45327Y273161D01*
X45347Y273157D01*
X45366Y273149D01*
X45504Y273127D01*
X45640Y273101D01*
X45660Y273102D01*
X45680Y273099D01*
X45819Y273112D01*
X45957Y273121D01*
X45976Y273127D01*
X45996Y273129D01*
X46128Y273176D01*
X46259Y273219D01*
X46277Y273229D01*
X46296Y273236D01*
X46411Y273314D01*
X46528Y273389D01*
X46542Y273404D01*
X46559Y273415D01*
X46651Y273519D01*
X46746Y273620D01*
X46756Y273638D01*
X46769Y273653D01*
X46833Y273777D01*
X46900Y273899D01*
X46905Y273919D01*
X46914Y273937D01*
X46944Y274072D01*
X46979Y274207D01*
X46981Y274235D01*
X46984Y274247D01*
X46983Y274267D01*
X46989Y274368D01*
X46989Y284432D01*
X46972Y284570D01*
X46959Y284709D01*
X46952Y284728D01*
X46949Y284748D01*
X46898Y284877D01*
X46851Y285008D01*
X46840Y285025D01*
X46832Y285044D01*
X46751Y285156D01*
X46673Y285271D01*
X46657Y285285D01*
X46646Y285301D01*
X46538Y285390D01*
X46434Y285482D01*
X46416Y285491D01*
X46401Y285504D01*
X46275Y285563D01*
X46151Y285626D01*
X46131Y285631D01*
X46113Y285639D01*
X45976Y285665D01*
X45841Y285696D01*
X45820Y285695D01*
X45801Y285699D01*
X45662Y285690D01*
X45523Y285686D01*
X45503Y285681D01*
X45483Y285679D01*
X45351Y285637D01*
X45217Y285598D01*
X45200Y285588D01*
X45181Y285581D01*
X45063Y285507D01*
X44943Y285436D01*
X44922Y285418D01*
X44912Y285411D01*
X44898Y285396D01*
X44823Y285330D01*
X43504Y284012D01*
X39998Y282559D01*
X36202Y282559D01*
X32696Y284012D01*
X30012Y286696D01*
X28559Y290202D01*
X28559Y293998D01*
X30012Y297504D01*
X32696Y300188D01*
X36202Y301641D01*
X39998Y301641D01*
X43504Y300188D01*
X44823Y298870D01*
X44932Y298785D01*
X45039Y298696D01*
X45058Y298688D01*
X45074Y298675D01*
X45201Y298620D01*
X45327Y298561D01*
X45347Y298557D01*
X45366Y298549D01*
X45504Y298527D01*
X45640Y298501D01*
X45660Y298502D01*
X45680Y298499D01*
X45819Y298512D01*
X45957Y298521D01*
X45976Y298527D01*
X45996Y298529D01*
X46128Y298576D01*
X46259Y298619D01*
X46277Y298629D01*
X46296Y298636D01*
X46411Y298714D01*
X46528Y298789D01*
X46542Y298804D01*
X46559Y298815D01*
X46651Y298919D01*
X46746Y299020D01*
X46756Y299038D01*
X46769Y299053D01*
X46833Y299177D01*
X46900Y299299D01*
X46905Y299319D01*
X46914Y299337D01*
X46944Y299472D01*
X46979Y299607D01*
X46981Y299635D01*
X46984Y299647D01*
X46983Y299667D01*
X46989Y299768D01*
X46989Y309832D01*
X46972Y309970D01*
X46959Y310109D01*
X46952Y310128D01*
X46949Y310148D01*
X46898Y310277D01*
X46851Y310408D01*
X46840Y310425D01*
X46832Y310444D01*
X46751Y310556D01*
X46673Y310671D01*
X46657Y310685D01*
X46646Y310701D01*
X46538Y310790D01*
X46434Y310882D01*
X46416Y310891D01*
X46401Y310904D01*
X46275Y310963D01*
X46151Y311026D01*
X46131Y311031D01*
X46113Y311039D01*
X45976Y311065D01*
X45841Y311096D01*
X45820Y311095D01*
X45801Y311099D01*
X45662Y311090D01*
X45523Y311086D01*
X45503Y311081D01*
X45483Y311079D01*
X45351Y311037D01*
X45217Y310998D01*
X45200Y310988D01*
X45181Y310981D01*
X45063Y310907D01*
X44943Y310836D01*
X44922Y310818D01*
X44912Y310811D01*
X44898Y310796D01*
X44823Y310730D01*
X43504Y309412D01*
X39998Y307959D01*
X36202Y307959D01*
X32696Y309412D01*
X30012Y312096D01*
X28559Y315602D01*
X28559Y319398D01*
X30012Y322904D01*
X32696Y325588D01*
X36202Y327041D01*
X39998Y327041D01*
X43504Y325588D01*
X44823Y324270D01*
X44932Y324185D01*
X45039Y324096D01*
X45058Y324088D01*
X45074Y324075D01*
X45201Y324020D01*
X45327Y323961D01*
X45347Y323957D01*
X45366Y323949D01*
X45504Y323927D01*
X45640Y323901D01*
X45660Y323902D01*
X45680Y323899D01*
X45819Y323912D01*
X45957Y323921D01*
X45976Y323927D01*
X45996Y323929D01*
X46128Y323976D01*
X46259Y324019D01*
X46277Y324029D01*
X46296Y324036D01*
X46411Y324114D01*
X46528Y324189D01*
X46542Y324204D01*
X46559Y324215D01*
X46651Y324319D01*
X46746Y324420D01*
X46756Y324438D01*
X46769Y324453D01*
X46833Y324577D01*
X46900Y324699D01*
X46905Y324719D01*
X46914Y324737D01*
X46944Y324872D01*
X46979Y325007D01*
X46981Y325035D01*
X46984Y325047D01*
X46983Y325067D01*
X46989Y325168D01*
X46989Y335232D01*
X46972Y335370D01*
X46959Y335509D01*
X46952Y335528D01*
X46949Y335548D01*
X46898Y335677D01*
X46851Y335808D01*
X46840Y335825D01*
X46832Y335844D01*
X46751Y335956D01*
X46673Y336071D01*
X46657Y336085D01*
X46646Y336101D01*
X46538Y336190D01*
X46434Y336282D01*
X46416Y336291D01*
X46401Y336304D01*
X46275Y336363D01*
X46151Y336426D01*
X46131Y336431D01*
X46113Y336439D01*
X45976Y336465D01*
X45841Y336496D01*
X45820Y336495D01*
X45801Y336499D01*
X45662Y336490D01*
X45523Y336486D01*
X45503Y336481D01*
X45483Y336479D01*
X45351Y336437D01*
X45217Y336398D01*
X45200Y336388D01*
X45181Y336381D01*
X45063Y336307D01*
X44943Y336236D01*
X44922Y336218D01*
X44912Y336211D01*
X44898Y336196D01*
X44823Y336130D01*
X43504Y334812D01*
X39998Y333359D01*
X36202Y333359D01*
X32696Y334812D01*
X30012Y337496D01*
X28559Y341002D01*
X28559Y344798D01*
X30012Y348304D01*
X32696Y350988D01*
X36202Y352441D01*
X39998Y352441D01*
X43504Y350988D01*
X44823Y349670D01*
X44932Y349585D01*
X45039Y349496D01*
X45058Y349488D01*
X45074Y349475D01*
X45201Y349420D01*
X45327Y349361D01*
X45347Y349357D01*
X45366Y349349D01*
X45504Y349327D01*
X45640Y349301D01*
X45660Y349302D01*
X45680Y349299D01*
X45819Y349312D01*
X45957Y349321D01*
X45976Y349327D01*
X45996Y349329D01*
X46128Y349376D01*
X46259Y349419D01*
X46277Y349429D01*
X46296Y349436D01*
X46411Y349514D01*
X46528Y349589D01*
X46542Y349604D01*
X46559Y349615D01*
X46651Y349719D01*
X46746Y349820D01*
X46756Y349838D01*
X46769Y349853D01*
X46833Y349977D01*
X46900Y350099D01*
X46905Y350119D01*
X46914Y350137D01*
X46944Y350272D01*
X46979Y350407D01*
X46981Y350435D01*
X46984Y350447D01*
X46983Y350467D01*
X46989Y350568D01*
X46989Y360632D01*
X46972Y360770D01*
X46959Y360909D01*
X46952Y360928D01*
X46949Y360948D01*
X46898Y361077D01*
X46851Y361208D01*
X46840Y361225D01*
X46832Y361244D01*
X46751Y361356D01*
X46673Y361471D01*
X46657Y361485D01*
X46646Y361501D01*
X46538Y361590D01*
X46434Y361682D01*
X46416Y361691D01*
X46401Y361704D01*
X46275Y361763D01*
X46151Y361826D01*
X46131Y361831D01*
X46113Y361839D01*
X45976Y361865D01*
X45841Y361896D01*
X45820Y361895D01*
X45801Y361899D01*
X45662Y361890D01*
X45523Y361886D01*
X45503Y361881D01*
X45483Y361879D01*
X45351Y361837D01*
X45217Y361798D01*
X45200Y361788D01*
X45181Y361781D01*
X45063Y361707D01*
X44943Y361636D01*
X44922Y361618D01*
X44912Y361611D01*
X44898Y361596D01*
X44823Y361530D01*
X43504Y360212D01*
X39998Y358759D01*
X36202Y358759D01*
X32696Y360212D01*
X30012Y362896D01*
X28559Y366402D01*
X28559Y370198D01*
X30012Y373704D01*
X32696Y376388D01*
X36202Y377841D01*
X39998Y377841D01*
X43504Y376388D01*
X44823Y375070D01*
X44932Y374985D01*
X45039Y374896D01*
X45058Y374888D01*
X45074Y374875D01*
X45201Y374820D01*
X45327Y374761D01*
X45347Y374757D01*
X45366Y374749D01*
X45504Y374727D01*
X45640Y374701D01*
X45660Y374702D01*
X45680Y374699D01*
X45819Y374712D01*
X45957Y374721D01*
X45976Y374727D01*
X45996Y374729D01*
X46128Y374776D01*
X46259Y374819D01*
X46277Y374829D01*
X46296Y374836D01*
X46411Y374914D01*
X46528Y374989D01*
X46542Y375004D01*
X46559Y375015D01*
X46651Y375119D01*
X46746Y375220D01*
X46756Y375238D01*
X46769Y375253D01*
X46833Y375377D01*
X46900Y375499D01*
X46905Y375519D01*
X46914Y375537D01*
X46944Y375672D01*
X46979Y375807D01*
X46981Y375835D01*
X46984Y375847D01*
X46983Y375867D01*
X46989Y375968D01*
X46989Y386032D01*
X46972Y386170D01*
X46959Y386309D01*
X46952Y386328D01*
X46949Y386348D01*
X46898Y386477D01*
X46851Y386608D01*
X46840Y386625D01*
X46832Y386644D01*
X46751Y386756D01*
X46673Y386871D01*
X46657Y386885D01*
X46646Y386901D01*
X46538Y386990D01*
X46434Y387082D01*
X46416Y387091D01*
X46401Y387104D01*
X46275Y387163D01*
X46151Y387226D01*
X46131Y387231D01*
X46113Y387239D01*
X45976Y387265D01*
X45841Y387296D01*
X45820Y387295D01*
X45801Y387299D01*
X45662Y387290D01*
X45523Y387286D01*
X45503Y387281D01*
X45483Y387279D01*
X45351Y387237D01*
X45217Y387198D01*
X45200Y387188D01*
X45181Y387181D01*
X45063Y387107D01*
X44943Y387036D01*
X44922Y387018D01*
X44912Y387011D01*
X44898Y386996D01*
X44823Y386930D01*
X43504Y385612D01*
X39998Y384159D01*
X36202Y384159D01*
X32696Y385612D01*
X30012Y388296D01*
X28559Y391802D01*
X28559Y395598D01*
X30012Y399104D01*
X32696Y401788D01*
X36202Y403241D01*
X39998Y403241D01*
X43504Y401788D01*
X44823Y400470D01*
X44932Y400385D01*
X45039Y400296D01*
X45058Y400288D01*
X45074Y400275D01*
X45201Y400220D01*
X45327Y400161D01*
X45347Y400157D01*
X45366Y400149D01*
X45504Y400127D01*
X45640Y400101D01*
X45660Y400102D01*
X45680Y400099D01*
X45819Y400112D01*
X45957Y400121D01*
X45976Y400127D01*
X45996Y400129D01*
X46128Y400176D01*
X46259Y400219D01*
X46277Y400229D01*
X46296Y400236D01*
X46411Y400314D01*
X46528Y400389D01*
X46542Y400404D01*
X46559Y400415D01*
X46651Y400519D01*
X46746Y400620D01*
X46756Y400638D01*
X46769Y400653D01*
X46833Y400777D01*
X46900Y400899D01*
X46905Y400919D01*
X46914Y400937D01*
X46944Y401072D01*
X46979Y401207D01*
X46981Y401235D01*
X46984Y401247D01*
X46983Y401267D01*
X46989Y401368D01*
X46989Y411432D01*
X46972Y411570D01*
X46959Y411709D01*
X46952Y411728D01*
X46949Y411748D01*
X46898Y411877D01*
X46851Y412008D01*
X46840Y412025D01*
X46832Y412044D01*
X46751Y412156D01*
X46673Y412271D01*
X46657Y412285D01*
X46646Y412301D01*
X46538Y412390D01*
X46434Y412482D01*
X46416Y412491D01*
X46401Y412504D01*
X46275Y412563D01*
X46151Y412626D01*
X46131Y412631D01*
X46113Y412639D01*
X45976Y412665D01*
X45841Y412696D01*
X45820Y412695D01*
X45801Y412699D01*
X45662Y412690D01*
X45523Y412686D01*
X45503Y412681D01*
X45483Y412679D01*
X45351Y412637D01*
X45217Y412598D01*
X45200Y412588D01*
X45181Y412581D01*
X45063Y412507D01*
X44943Y412436D01*
X44922Y412418D01*
X44912Y412411D01*
X44898Y412396D01*
X44823Y412330D01*
X43504Y411012D01*
X39998Y409559D01*
X36202Y409559D01*
X32696Y411012D01*
X30012Y413696D01*
X28559Y417202D01*
X28559Y420998D01*
X30012Y424504D01*
X32696Y427188D01*
X36202Y428641D01*
X39998Y428641D01*
X43504Y427188D01*
X44823Y425870D01*
X44932Y425785D01*
X45039Y425696D01*
X45058Y425688D01*
X45074Y425675D01*
X45201Y425620D01*
X45327Y425561D01*
X45347Y425557D01*
X45366Y425549D01*
X45504Y425527D01*
X45640Y425501D01*
X45660Y425502D01*
X45680Y425499D01*
X45819Y425512D01*
X45957Y425521D01*
X45976Y425527D01*
X45996Y425529D01*
X46128Y425576D01*
X46259Y425619D01*
X46277Y425629D01*
X46296Y425636D01*
X46411Y425714D01*
X46528Y425789D01*
X46542Y425804D01*
X46559Y425815D01*
X46651Y425919D01*
X46746Y426020D01*
X46756Y426038D01*
X46769Y426053D01*
X46833Y426177D01*
X46900Y426299D01*
X46905Y426319D01*
X46914Y426337D01*
X46944Y426472D01*
X46979Y426607D01*
X46981Y426635D01*
X46984Y426647D01*
X46983Y426667D01*
X46989Y426768D01*
X46989Y436832D01*
X46972Y436970D01*
X46959Y437109D01*
X46952Y437128D01*
X46949Y437148D01*
X46898Y437277D01*
X46851Y437408D01*
X46840Y437425D01*
X46832Y437444D01*
X46751Y437556D01*
X46673Y437671D01*
X46657Y437685D01*
X46646Y437701D01*
X46538Y437790D01*
X46434Y437882D01*
X46416Y437891D01*
X46401Y437904D01*
X46275Y437963D01*
X46151Y438026D01*
X46131Y438031D01*
X46113Y438039D01*
X45976Y438065D01*
X45841Y438096D01*
X45820Y438095D01*
X45801Y438099D01*
X45662Y438090D01*
X45523Y438086D01*
X45503Y438081D01*
X45483Y438079D01*
X45351Y438037D01*
X45217Y437998D01*
X45200Y437988D01*
X45181Y437981D01*
X45063Y437907D01*
X44943Y437836D01*
X44922Y437818D01*
X44912Y437811D01*
X44898Y437796D01*
X44823Y437730D01*
X43504Y436412D01*
X39998Y434959D01*
X36202Y434959D01*
X32696Y436412D01*
X30012Y439096D01*
X28559Y442602D01*
X28559Y446398D01*
X30012Y449904D01*
X32696Y452588D01*
X36202Y454041D01*
X39998Y454041D01*
X43504Y452588D01*
X44823Y451270D01*
X44932Y451185D01*
X45039Y451096D01*
X45058Y451088D01*
X45074Y451075D01*
X45201Y451020D01*
X45327Y450961D01*
X45347Y450957D01*
X45366Y450949D01*
X45504Y450927D01*
X45640Y450901D01*
X45660Y450902D01*
X45680Y450899D01*
X45819Y450912D01*
X45957Y450921D01*
X45976Y450927D01*
X45996Y450929D01*
X46128Y450976D01*
X46259Y451019D01*
X46277Y451029D01*
X46296Y451036D01*
X46411Y451114D01*
X46528Y451189D01*
X46542Y451204D01*
X46559Y451215D01*
X46651Y451319D01*
X46746Y451420D01*
X46756Y451438D01*
X46769Y451453D01*
X46833Y451577D01*
X46900Y451699D01*
X46905Y451719D01*
X46914Y451737D01*
X46944Y451872D01*
X46979Y452007D01*
X46981Y452035D01*
X46984Y452047D01*
X46983Y452067D01*
X46989Y452168D01*
X46989Y462232D01*
X46972Y462370D01*
X46959Y462509D01*
X46952Y462528D01*
X46949Y462548D01*
X46898Y462677D01*
X46851Y462808D01*
X46840Y462825D01*
X46832Y462844D01*
X46751Y462956D01*
X46673Y463071D01*
X46657Y463085D01*
X46646Y463101D01*
X46538Y463190D01*
X46434Y463282D01*
X46416Y463291D01*
X46401Y463304D01*
X46275Y463363D01*
X46151Y463426D01*
X46131Y463431D01*
X46113Y463439D01*
X45976Y463465D01*
X45841Y463496D01*
X45820Y463495D01*
X45801Y463499D01*
X45662Y463490D01*
X45523Y463486D01*
X45503Y463481D01*
X45483Y463479D01*
X45351Y463437D01*
X45217Y463398D01*
X45200Y463388D01*
X45181Y463381D01*
X45063Y463307D01*
X44943Y463236D01*
X44922Y463218D01*
X44912Y463211D01*
X44898Y463196D01*
X44823Y463130D01*
X43504Y461812D01*
X39998Y460359D01*
X36202Y460359D01*
X32696Y461812D01*
X30012Y464496D01*
X28559Y468002D01*
X28559Y471798D01*
X30012Y475304D01*
X32696Y477988D01*
X36202Y479441D01*
X39998Y479441D01*
X43504Y477988D01*
X44823Y476670D01*
X44932Y476585D01*
X45039Y476496D01*
X45058Y476488D01*
X45074Y476475D01*
X45201Y476420D01*
X45327Y476361D01*
X45347Y476357D01*
X45366Y476349D01*
X45504Y476327D01*
X45640Y476301D01*
X45660Y476302D01*
X45680Y476299D01*
X45819Y476312D01*
X45957Y476321D01*
X45976Y476327D01*
X45996Y476329D01*
X46128Y476376D01*
X46259Y476419D01*
X46277Y476429D01*
X46296Y476436D01*
X46411Y476514D01*
X46528Y476589D01*
X46542Y476604D01*
X46559Y476615D01*
X46651Y476719D01*
X46746Y476820D01*
X46756Y476838D01*
X46769Y476853D01*
X46833Y476977D01*
X46900Y477099D01*
X46905Y477119D01*
X46914Y477137D01*
X46944Y477272D01*
X46979Y477407D01*
X46981Y477435D01*
X46984Y477447D01*
X46983Y477467D01*
X46989Y477568D01*
X46989Y487632D01*
X46972Y487770D01*
X46959Y487909D01*
X46952Y487928D01*
X46949Y487948D01*
X46898Y488077D01*
X46851Y488208D01*
X46840Y488225D01*
X46832Y488244D01*
X46751Y488356D01*
X46673Y488471D01*
X46657Y488485D01*
X46646Y488501D01*
X46538Y488590D01*
X46434Y488682D01*
X46416Y488691D01*
X46401Y488704D01*
X46275Y488763D01*
X46151Y488826D01*
X46131Y488831D01*
X46113Y488839D01*
X45976Y488865D01*
X45841Y488896D01*
X45820Y488895D01*
X45801Y488899D01*
X45662Y488890D01*
X45523Y488886D01*
X45503Y488881D01*
X45483Y488879D01*
X45351Y488837D01*
X45217Y488798D01*
X45200Y488788D01*
X45181Y488781D01*
X45063Y488707D01*
X44943Y488636D01*
X44922Y488618D01*
X44912Y488611D01*
X44898Y488596D01*
X44823Y488530D01*
X43504Y487212D01*
X39998Y485759D01*
X36202Y485759D01*
X32696Y487212D01*
X30012Y489896D01*
X28559Y493402D01*
X28559Y497198D01*
X30012Y500704D01*
X32696Y503388D01*
X36202Y504841D01*
X39998Y504841D01*
X43504Y503388D01*
X44823Y502070D01*
X44932Y501985D01*
X45039Y501896D01*
X45058Y501888D01*
X45074Y501875D01*
X45201Y501820D01*
X45327Y501761D01*
X45347Y501757D01*
X45366Y501749D01*
X45504Y501727D01*
X45640Y501701D01*
X45660Y501702D01*
X45680Y501699D01*
X45819Y501712D01*
X45957Y501721D01*
X45976Y501727D01*
X45996Y501729D01*
X46128Y501776D01*
X46259Y501819D01*
X46277Y501829D01*
X46296Y501836D01*
X46411Y501914D01*
X46528Y501989D01*
X46542Y502004D01*
X46559Y502015D01*
X46651Y502119D01*
X46746Y502220D01*
X46756Y502238D01*
X46769Y502253D01*
X46833Y502377D01*
X46900Y502499D01*
X46905Y502519D01*
X46914Y502537D01*
X46944Y502672D01*
X46979Y502807D01*
X46981Y502835D01*
X46984Y502847D01*
X46983Y502867D01*
X46989Y502968D01*
X46989Y513032D01*
X46972Y513170D01*
X46959Y513309D01*
X46952Y513328D01*
X46949Y513348D01*
X46898Y513477D01*
X46851Y513608D01*
X46840Y513625D01*
X46832Y513644D01*
X46751Y513756D01*
X46673Y513871D01*
X46657Y513885D01*
X46646Y513901D01*
X46538Y513990D01*
X46434Y514082D01*
X46416Y514091D01*
X46401Y514104D01*
X46275Y514163D01*
X46151Y514226D01*
X46131Y514231D01*
X46113Y514239D01*
X45976Y514265D01*
X45841Y514296D01*
X45820Y514295D01*
X45801Y514299D01*
X45662Y514290D01*
X45523Y514286D01*
X45503Y514281D01*
X45483Y514279D01*
X45351Y514237D01*
X45217Y514198D01*
X45200Y514188D01*
X45181Y514181D01*
X45063Y514107D01*
X44943Y514036D01*
X44922Y514018D01*
X44912Y514011D01*
X44898Y513996D01*
X44823Y513930D01*
X43504Y512612D01*
X39998Y511159D01*
X36202Y511159D01*
X32696Y512612D01*
X30012Y515296D01*
X28559Y518802D01*
X28559Y522598D01*
X30012Y526104D01*
X31330Y527423D01*
X31415Y527532D01*
X31504Y527639D01*
X31512Y527658D01*
X31525Y527674D01*
X31580Y527801D01*
X31639Y527927D01*
X31643Y527947D01*
X31651Y527966D01*
X31673Y528104D01*
X31699Y528240D01*
X31698Y528260D01*
X31701Y528280D01*
X31688Y528419D01*
X31679Y528557D01*
X31673Y528576D01*
X31671Y528596D01*
X31624Y528728D01*
X31581Y528859D01*
X31571Y528877D01*
X31564Y528896D01*
X31486Y529011D01*
X31411Y529128D01*
X31396Y529142D01*
X31385Y529159D01*
X31281Y529251D01*
X31180Y529346D01*
X31162Y529356D01*
X31147Y529369D01*
X31023Y529433D01*
X30901Y529500D01*
X30881Y529505D01*
X30863Y529514D01*
X30728Y529544D01*
X30593Y529579D01*
X30565Y529581D01*
X30553Y529584D01*
X30533Y529583D01*
X30432Y529589D01*
X23822Y529589D01*
X21589Y531822D01*
X21589Y560378D01*
X23822Y562611D01*
X30432Y562611D01*
X30570Y562628D01*
X30709Y562641D01*
X30728Y562648D01*
X30748Y562651D01*
X30877Y562702D01*
X31008Y562749D01*
X31025Y562760D01*
X31044Y562768D01*
X31156Y562849D01*
X31271Y562927D01*
X31285Y562943D01*
X31301Y562954D01*
X31390Y563062D01*
X31482Y563166D01*
X31491Y563184D01*
X31504Y563199D01*
X31563Y563325D01*
X31626Y563449D01*
X31631Y563469D01*
X31639Y563487D01*
X31665Y563624D01*
X31696Y563759D01*
X31695Y563780D01*
X31699Y563799D01*
X31690Y563938D01*
X31686Y564077D01*
X31681Y564097D01*
X31679Y564117D01*
X31637Y564249D01*
X31598Y564383D01*
X31588Y564400D01*
X31581Y564419D01*
X31507Y564537D01*
X31436Y564657D01*
X31418Y564678D01*
X31411Y564688D01*
X31396Y564702D01*
X31330Y564777D01*
X30012Y566096D01*
X28559Y569602D01*
X28559Y573398D01*
X30012Y576904D01*
X32696Y579588D01*
X36202Y581041D01*
X39998Y581041D01*
X43504Y579588D01*
X46188Y576904D01*
X47641Y573398D01*
X47641Y569602D01*
X46188Y566096D01*
X44870Y564777D01*
X44785Y564668D01*
X44696Y564561D01*
X44688Y564542D01*
X44675Y564526D01*
X44620Y564399D01*
X44561Y564273D01*
X44557Y564253D01*
X44549Y564234D01*
X44527Y564096D01*
X44501Y563960D01*
X44502Y563940D01*
X44499Y563920D01*
X44512Y563781D01*
X44521Y563643D01*
X44527Y563624D01*
X44529Y563604D01*
X44576Y563472D01*
X44619Y563341D01*
X44629Y563323D01*
X44636Y563304D01*
X44714Y563189D01*
X44789Y563072D01*
X44804Y563058D01*
X44815Y563041D01*
X44919Y562949D01*
X45020Y562854D01*
X45038Y562844D01*
X45053Y562831D01*
X45177Y562767D01*
X45299Y562700D01*
X45319Y562695D01*
X45337Y562686D01*
X45472Y562656D01*
X45607Y562621D01*
X45635Y562619D01*
X45647Y562616D01*
X45667Y562617D01*
X45768Y562611D01*
X65078Y562611D01*
X67311Y560378D01*
X67311Y309880D01*
X67326Y309762D01*
X67333Y309643D01*
X67346Y309605D01*
X67351Y309564D01*
X67394Y309454D01*
X67431Y309341D01*
X67453Y309306D01*
X67468Y309269D01*
X67537Y309173D01*
X67601Y309072D01*
X67631Y309044D01*
X67654Y309011D01*
X67746Y308935D01*
X67833Y308854D01*
X67868Y308834D01*
X67899Y308809D01*
X68007Y308758D01*
X68111Y308700D01*
X68151Y308690D01*
X68187Y308673D01*
X68304Y308651D01*
X68419Y308621D01*
X68479Y308617D01*
X68499Y308613D01*
X68520Y308615D01*
X68580Y308611D01*
X191139Y308611D01*
X191188Y308617D01*
X191238Y308615D01*
X191345Y308637D01*
X191455Y308651D01*
X191501Y308669D01*
X191549Y308679D01*
X191648Y308727D01*
X191750Y308768D01*
X191790Y308797D01*
X191835Y308819D01*
X191919Y308890D01*
X192008Y308954D01*
X192039Y308993D01*
X192077Y309025D01*
X192140Y309115D01*
X192210Y309199D01*
X192232Y309244D01*
X192260Y309285D01*
X192299Y309388D01*
X192346Y309487D01*
X192355Y309536D01*
X192373Y309582D01*
X192385Y309692D01*
X192406Y309799D01*
X192403Y309849D01*
X192408Y309898D01*
X192393Y310007D01*
X192386Y310117D01*
X192371Y310164D01*
X192364Y310213D01*
X192312Y310366D01*
X190886Y313807D01*
X190886Y317293D01*
X192220Y320514D01*
X194686Y322980D01*
X197907Y324314D01*
X201393Y324314D01*
X204614Y322980D01*
X207080Y320514D01*
X208414Y317293D01*
X208414Y313807D01*
X206988Y310366D01*
X206975Y310318D01*
X206954Y310273D01*
X206933Y310165D01*
X206904Y310059D01*
X206904Y310009D01*
X206894Y309960D01*
X206901Y309851D01*
X206899Y309741D01*
X206911Y309693D01*
X206914Y309643D01*
X206948Y309539D01*
X206974Y309432D01*
X206997Y309388D01*
X207012Y309341D01*
X207071Y309248D01*
X207122Y309151D01*
X207156Y309114D01*
X207182Y309072D01*
X207262Y308997D01*
X207336Y308915D01*
X207378Y308888D01*
X207414Y308854D01*
X207510Y308801D01*
X207602Y308741D01*
X207649Y308724D01*
X207692Y308700D01*
X207799Y308673D01*
X207903Y308637D01*
X207952Y308633D01*
X208000Y308621D01*
X208161Y308611D01*
X216539Y308611D01*
X216588Y308617D01*
X216638Y308615D01*
X216745Y308637D01*
X216855Y308651D01*
X216901Y308669D01*
X216949Y308679D01*
X217048Y308727D01*
X217150Y308768D01*
X217190Y308797D01*
X217235Y308819D01*
X217319Y308890D01*
X217408Y308954D01*
X217439Y308993D01*
X217477Y309025D01*
X217540Y309115D01*
X217610Y309199D01*
X217632Y309244D01*
X217660Y309285D01*
X217699Y309388D01*
X217746Y309487D01*
X217755Y309536D01*
X217773Y309582D01*
X217785Y309692D01*
X217806Y309799D01*
X217803Y309849D01*
X217808Y309898D01*
X217793Y310007D01*
X217786Y310117D01*
X217771Y310164D01*
X217764Y310213D01*
X217712Y310366D01*
X216286Y313807D01*
X216286Y317293D01*
X217620Y320514D01*
X220086Y322980D01*
X223307Y324314D01*
X226793Y324314D01*
X230014Y322980D01*
X232480Y320514D01*
X233814Y317293D01*
X233814Y313807D01*
X232388Y310366D01*
X232375Y310318D01*
X232354Y310273D01*
X232333Y310165D01*
X232304Y310059D01*
X232304Y310009D01*
X232294Y309960D01*
X232301Y309851D01*
X232299Y309741D01*
X232311Y309693D01*
X232314Y309643D01*
X232348Y309539D01*
X232374Y309432D01*
X232397Y309388D01*
X232412Y309341D01*
X232471Y309248D01*
X232522Y309151D01*
X232556Y309114D01*
X232582Y309072D01*
X232662Y308997D01*
X232736Y308915D01*
X232778Y308888D01*
X232814Y308854D01*
X232910Y308801D01*
X233002Y308741D01*
X233049Y308724D01*
X233092Y308700D01*
X233199Y308673D01*
X233303Y308637D01*
X233352Y308633D01*
X233400Y308621D01*
X233561Y308611D01*
X242878Y308611D01*
X245111Y306378D01*
X245111Y271472D01*
X242878Y269239D01*
X234576Y269239D01*
X234526Y269233D01*
X234477Y269235D01*
X234369Y269213D01*
X234260Y269199D01*
X234214Y269181D01*
X234165Y269171D01*
X234067Y269123D01*
X233965Y269082D01*
X233924Y269053D01*
X233880Y269031D01*
X233796Y268960D01*
X233707Y268896D01*
X233676Y268857D01*
X233638Y268825D01*
X233575Y268735D01*
X233504Y268651D01*
X233483Y268606D01*
X233455Y268565D01*
X233416Y268462D01*
X233369Y268363D01*
X233360Y268314D01*
X233342Y268268D01*
X233330Y268158D01*
X233309Y268051D01*
X233312Y268001D01*
X233307Y267952D01*
X233322Y267843D01*
X233329Y267733D01*
X233344Y267686D01*
X233351Y267637D01*
X233403Y267484D01*
X233814Y266493D01*
X233814Y263007D01*
X232480Y259786D01*
X230014Y257320D01*
X226793Y255986D01*
X223307Y255986D01*
X220086Y257320D01*
X217620Y259786D01*
X216286Y263007D01*
X216286Y266493D01*
X216697Y267484D01*
X216710Y267532D01*
X216731Y267577D01*
X216752Y267685D01*
X216781Y267791D01*
X216782Y267841D01*
X216791Y267890D01*
X216784Y267999D01*
X216786Y268109D01*
X216774Y268157D01*
X216771Y268207D01*
X216737Y268311D01*
X216712Y268418D01*
X216688Y268462D01*
X216673Y268509D01*
X216614Y268602D01*
X216563Y268699D01*
X216530Y268736D01*
X216503Y268778D01*
X216423Y268853D01*
X216349Y268935D01*
X216308Y268962D01*
X216271Y268996D01*
X216175Y269049D01*
X216083Y269109D01*
X216036Y269126D01*
X215993Y269150D01*
X215887Y269177D01*
X215783Y269213D01*
X215733Y269217D01*
X215685Y269229D01*
X215524Y269239D01*
X209176Y269239D01*
X209126Y269233D01*
X209077Y269235D01*
X208969Y269213D01*
X208860Y269199D01*
X208814Y269181D01*
X208765Y269171D01*
X208667Y269123D01*
X208565Y269082D01*
X208524Y269053D01*
X208480Y269031D01*
X208396Y268960D01*
X208307Y268896D01*
X208276Y268857D01*
X208238Y268825D01*
X208175Y268735D01*
X208104Y268651D01*
X208083Y268606D01*
X208055Y268565D01*
X208016Y268462D01*
X207969Y268363D01*
X207960Y268314D01*
X207942Y268268D01*
X207930Y268158D01*
X207909Y268051D01*
X207912Y268001D01*
X207907Y267952D01*
X207922Y267843D01*
X207929Y267733D01*
X207944Y267686D01*
X207951Y267637D01*
X208003Y267484D01*
X208414Y266493D01*
X208414Y263007D01*
X207080Y259786D01*
X204614Y257320D01*
X201393Y255986D01*
X197907Y255986D01*
G37*
%LPD*%
G36*
X193859Y271793D02*
X193859Y271793D01*
X193958Y271796D01*
X194017Y271813D01*
X194077Y271821D01*
X194169Y271857D01*
X194264Y271885D01*
X194316Y271915D01*
X194372Y271938D01*
X194452Y271996D01*
X194538Y272046D01*
X194613Y272112D01*
X194630Y272124D01*
X194638Y272134D01*
X194659Y272153D01*
X194686Y272180D01*
X197907Y273514D01*
X201393Y273514D01*
X204614Y272180D01*
X204641Y272153D01*
X204720Y272092D01*
X204792Y272024D01*
X204845Y271995D01*
X204893Y271958D01*
X204984Y271918D01*
X205070Y271870D01*
X205129Y271855D01*
X205184Y271831D01*
X205282Y271816D01*
X205378Y271791D01*
X205478Y271785D01*
X205498Y271781D01*
X205511Y271783D01*
X205539Y271781D01*
X219161Y271781D01*
X219259Y271793D01*
X219358Y271796D01*
X219417Y271813D01*
X219477Y271821D01*
X219569Y271857D01*
X219664Y271885D01*
X219716Y271915D01*
X219772Y271938D01*
X219852Y271996D01*
X219938Y272046D01*
X220013Y272112D01*
X220030Y272124D01*
X220038Y272134D01*
X220059Y272153D01*
X220086Y272180D01*
X223307Y273514D01*
X226793Y273514D01*
X230014Y272180D01*
X230041Y272153D01*
X230120Y272092D01*
X230192Y272024D01*
X230245Y271995D01*
X230293Y271958D01*
X230384Y271918D01*
X230470Y271870D01*
X230529Y271855D01*
X230584Y271831D01*
X230682Y271816D01*
X230778Y271791D01*
X230878Y271785D01*
X230898Y271781D01*
X230911Y271783D01*
X230939Y271781D01*
X241300Y271781D01*
X241418Y271796D01*
X241537Y271803D01*
X241575Y271816D01*
X241616Y271821D01*
X241726Y271864D01*
X241839Y271901D01*
X241874Y271923D01*
X241911Y271938D01*
X242007Y272008D01*
X242108Y272071D01*
X242136Y272101D01*
X242169Y272124D01*
X242245Y272216D01*
X242326Y272303D01*
X242346Y272338D01*
X242371Y272369D01*
X242422Y272477D01*
X242480Y272581D01*
X242490Y272621D01*
X242507Y272657D01*
X242529Y272774D01*
X242559Y272889D01*
X242563Y272950D01*
X242567Y272970D01*
X242565Y272990D01*
X242569Y273050D01*
X242569Y304800D01*
X242554Y304918D01*
X242547Y305037D01*
X242534Y305075D01*
X242529Y305116D01*
X242486Y305226D01*
X242449Y305339D01*
X242427Y305374D01*
X242412Y305411D01*
X242343Y305507D01*
X242279Y305608D01*
X242249Y305636D01*
X242226Y305669D01*
X242134Y305745D01*
X242047Y305826D01*
X242012Y305846D01*
X241981Y305871D01*
X241873Y305922D01*
X241769Y305980D01*
X241729Y305990D01*
X241693Y306007D01*
X241576Y306029D01*
X241461Y306059D01*
X241401Y306063D01*
X241381Y306067D01*
X241360Y306065D01*
X241300Y306069D01*
X64769Y306069D01*
X64769Y558800D01*
X64754Y558918D01*
X64747Y559037D01*
X64734Y559075D01*
X64729Y559116D01*
X64686Y559226D01*
X64649Y559339D01*
X64627Y559374D01*
X64612Y559411D01*
X64543Y559507D01*
X64479Y559608D01*
X64449Y559636D01*
X64426Y559669D01*
X64334Y559745D01*
X64247Y559826D01*
X64212Y559846D01*
X64181Y559871D01*
X64073Y559922D01*
X63969Y559980D01*
X63929Y559990D01*
X63893Y560007D01*
X63776Y560029D01*
X63661Y560059D01*
X63601Y560063D01*
X63581Y560067D01*
X63560Y560065D01*
X63500Y560069D01*
X25400Y560069D01*
X25282Y560054D01*
X25163Y560047D01*
X25125Y560034D01*
X25084Y560029D01*
X24974Y559986D01*
X24861Y559949D01*
X24826Y559927D01*
X24789Y559912D01*
X24693Y559843D01*
X24592Y559779D01*
X24564Y559749D01*
X24531Y559726D01*
X24456Y559634D01*
X24374Y559547D01*
X24354Y559512D01*
X24329Y559481D01*
X24278Y559373D01*
X24220Y559269D01*
X24210Y559229D01*
X24193Y559193D01*
X24171Y559076D01*
X24141Y558961D01*
X24137Y558901D01*
X24133Y558881D01*
X24135Y558860D01*
X24131Y558800D01*
X24131Y533400D01*
X24146Y533282D01*
X24153Y533163D01*
X24166Y533125D01*
X24171Y533084D01*
X24214Y532974D01*
X24251Y532861D01*
X24273Y532826D01*
X24288Y532789D01*
X24358Y532693D01*
X24421Y532592D01*
X24451Y532564D01*
X24474Y532531D01*
X24566Y532456D01*
X24653Y532374D01*
X24688Y532354D01*
X24719Y532329D01*
X24827Y532278D01*
X24931Y532220D01*
X24971Y532210D01*
X25007Y532193D01*
X25124Y532171D01*
X25239Y532141D01*
X25300Y532137D01*
X25320Y532133D01*
X25340Y532135D01*
X25400Y532131D01*
X49531Y532131D01*
X49531Y273050D01*
X49546Y272932D01*
X49553Y272813D01*
X49566Y272775D01*
X49571Y272734D01*
X49614Y272624D01*
X49651Y272511D01*
X49673Y272476D01*
X49688Y272439D01*
X49758Y272343D01*
X49821Y272242D01*
X49851Y272214D01*
X49874Y272181D01*
X49966Y272106D01*
X50053Y272024D01*
X50088Y272004D01*
X50119Y271979D01*
X50227Y271928D01*
X50331Y271870D01*
X50371Y271860D01*
X50407Y271843D01*
X50524Y271821D01*
X50639Y271791D01*
X50700Y271787D01*
X50720Y271783D01*
X50740Y271785D01*
X50800Y271781D01*
X193761Y271781D01*
X193859Y271793D01*
G37*
%LPC*%
G36*
X795600Y593329D02*
X795600Y593329D01*
X787286Y596773D01*
X780923Y603136D01*
X777479Y611450D01*
X777479Y620450D01*
X780923Y628764D01*
X787286Y635127D01*
X795600Y638571D01*
X804600Y638571D01*
X812914Y635127D01*
X819277Y628764D01*
X822721Y620450D01*
X822721Y611450D01*
X819277Y603136D01*
X812914Y596773D01*
X804600Y593329D01*
X795600Y593329D01*
G37*
%LPD*%
%LPC*%
G36*
X33600Y21829D02*
X33600Y21829D01*
X25286Y25273D01*
X18923Y31636D01*
X15479Y39950D01*
X15479Y48950D01*
X18923Y57264D01*
X25286Y63627D01*
X33600Y67071D01*
X42600Y67071D01*
X50914Y63627D01*
X57277Y57264D01*
X60721Y48950D01*
X60721Y39950D01*
X57277Y31636D01*
X50914Y25273D01*
X42600Y21829D01*
X33600Y21829D01*
G37*
%LPD*%
%LPC*%
G36*
X33600Y593329D02*
X33600Y593329D01*
X25286Y596773D01*
X18923Y603136D01*
X15479Y611450D01*
X15479Y620450D01*
X18923Y628764D01*
X25286Y635127D01*
X33600Y638571D01*
X42600Y638571D01*
X50914Y635127D01*
X57277Y628764D01*
X60721Y620450D01*
X60721Y611450D01*
X57277Y603136D01*
X50914Y596773D01*
X42600Y593329D01*
X33600Y593329D01*
G37*
%LPD*%
%LPC*%
G36*
X795600Y21829D02*
X795600Y21829D01*
X787286Y25273D01*
X780923Y31636D01*
X777479Y39950D01*
X777479Y48950D01*
X780923Y57264D01*
X787286Y63627D01*
X795600Y67071D01*
X804600Y67071D01*
X812914Y63627D01*
X819277Y57264D01*
X822721Y48950D01*
X822721Y39950D01*
X819277Y31636D01*
X812914Y25273D01*
X804600Y21829D01*
X795600Y21829D01*
G37*
%LPD*%
%LPC*%
G36*
X715542Y363259D02*
X715542Y363259D01*
X708691Y366097D01*
X703447Y371341D01*
X700609Y378192D01*
X700609Y385608D01*
X703447Y392459D01*
X708691Y397703D01*
X715542Y400541D01*
X722958Y400541D01*
X729809Y397703D01*
X735053Y392459D01*
X737891Y385608D01*
X737891Y378192D01*
X735053Y371341D01*
X729809Y366097D01*
X722958Y363259D01*
X715542Y363259D01*
G37*
%LPD*%
%LPC*%
G36*
X715542Y494659D02*
X715542Y494659D01*
X708691Y497497D01*
X703447Y502741D01*
X700609Y509592D01*
X700609Y517008D01*
X703447Y523859D01*
X708691Y529103D01*
X715542Y531941D01*
X722958Y531941D01*
X729809Y529103D01*
X735053Y523859D01*
X737891Y517008D01*
X737891Y509592D01*
X735053Y502741D01*
X729809Y497497D01*
X722958Y494659D01*
X715542Y494659D01*
G37*
%LPD*%
%LPC*%
G36*
X690364Y428619D02*
X690364Y428619D01*
X687063Y429986D01*
X684536Y432513D01*
X683169Y435814D01*
X683169Y439386D01*
X684536Y442687D01*
X687063Y445214D01*
X689993Y446427D01*
X690114Y446496D01*
X690237Y446561D01*
X690252Y446575D01*
X690270Y446585D01*
X690370Y446682D01*
X690472Y446775D01*
X690483Y446792D01*
X690498Y446806D01*
X690571Y446925D01*
X690647Y447041D01*
X690654Y447060D01*
X690664Y447077D01*
X690705Y447210D01*
X690750Y447342D01*
X690752Y447362D01*
X690758Y447381D01*
X690765Y447520D01*
X690776Y447659D01*
X690772Y447679D01*
X690773Y447699D01*
X690745Y447835D01*
X690721Y447972D01*
X690713Y447991D01*
X690709Y448010D01*
X690647Y448136D01*
X690591Y448262D01*
X690578Y448278D01*
X690569Y448296D01*
X690479Y448402D01*
X690392Y448510D01*
X690376Y448523D01*
X690363Y448538D01*
X690249Y448618D01*
X690138Y448702D01*
X690113Y448714D01*
X690103Y448721D01*
X690083Y448728D01*
X689993Y448773D01*
X687063Y449986D01*
X684536Y452513D01*
X683169Y455814D01*
X683169Y459386D01*
X684536Y462687D01*
X687063Y465214D01*
X690364Y466581D01*
X693936Y466581D01*
X697237Y465214D01*
X699764Y462687D01*
X701131Y459386D01*
X701131Y455814D01*
X699764Y452513D01*
X697237Y449986D01*
X694307Y448773D01*
X694186Y448704D01*
X694063Y448639D01*
X694048Y448625D01*
X694030Y448615D01*
X693930Y448518D01*
X693828Y448425D01*
X693816Y448408D01*
X693802Y448394D01*
X693729Y448276D01*
X693653Y448159D01*
X693646Y448140D01*
X693636Y448123D01*
X693595Y447990D01*
X693550Y447858D01*
X693548Y447838D01*
X693542Y447819D01*
X693535Y447680D01*
X693524Y447541D01*
X693528Y447521D01*
X693527Y447501D01*
X693555Y447365D01*
X693579Y447228D01*
X693587Y447209D01*
X693591Y447190D01*
X693652Y447065D01*
X693709Y446938D01*
X693722Y446922D01*
X693731Y446904D01*
X693821Y446798D01*
X693908Y446690D01*
X693924Y446677D01*
X693937Y446662D01*
X694051Y446582D01*
X694162Y446498D01*
X694187Y446486D01*
X694197Y446479D01*
X694217Y446472D01*
X694307Y446427D01*
X697237Y445214D01*
X699764Y442687D01*
X701131Y439386D01*
X701131Y435814D01*
X699764Y432513D01*
X697237Y429986D01*
X693936Y428619D01*
X690364Y428619D01*
G37*
%LPD*%
%LPC*%
G36*
X36202Y231759D02*
X36202Y231759D01*
X32696Y233212D01*
X30012Y235896D01*
X28559Y239402D01*
X28559Y243198D01*
X30012Y246704D01*
X32696Y249388D01*
X36202Y250841D01*
X39998Y250841D01*
X43504Y249388D01*
X46188Y246704D01*
X47641Y243198D01*
X47641Y239402D01*
X46188Y235896D01*
X43504Y233212D01*
X39998Y231759D01*
X36202Y231759D01*
G37*
%LPD*%
%LPC*%
G36*
X36202Y79359D02*
X36202Y79359D01*
X32696Y80812D01*
X30012Y83496D01*
X28559Y87002D01*
X28559Y90798D01*
X30012Y94304D01*
X32696Y96988D01*
X36202Y98441D01*
X39998Y98441D01*
X43504Y96988D01*
X46188Y94304D01*
X47641Y90798D01*
X47641Y87002D01*
X46188Y83496D01*
X43504Y80812D01*
X39998Y79359D01*
X36202Y79359D01*
G37*
%LPD*%
%LPC*%
G36*
X36202Y104759D02*
X36202Y104759D01*
X32696Y106212D01*
X30012Y108896D01*
X28559Y112402D01*
X28559Y116198D01*
X30012Y119704D01*
X32696Y122388D01*
X36202Y123841D01*
X39998Y123841D01*
X43504Y122388D01*
X46188Y119704D01*
X47641Y116198D01*
X47641Y112402D01*
X46188Y108896D01*
X43504Y106212D01*
X39998Y104759D01*
X36202Y104759D01*
G37*
%LPD*%
%LPC*%
G36*
X36202Y206359D02*
X36202Y206359D01*
X32696Y207812D01*
X30012Y210496D01*
X28559Y214002D01*
X28559Y217798D01*
X30012Y221304D01*
X32696Y223988D01*
X36202Y225441D01*
X39998Y225441D01*
X43504Y223988D01*
X46188Y221304D01*
X47641Y217798D01*
X47641Y214002D01*
X46188Y210496D01*
X43504Y207812D01*
X39998Y206359D01*
X36202Y206359D01*
G37*
%LPD*%
%LPC*%
G36*
X36202Y130159D02*
X36202Y130159D01*
X32696Y131612D01*
X30012Y134296D01*
X28559Y137802D01*
X28559Y141598D01*
X30012Y145104D01*
X32696Y147788D01*
X36202Y149241D01*
X39998Y149241D01*
X43504Y147788D01*
X46188Y145104D01*
X47641Y141598D01*
X47641Y137802D01*
X46188Y134296D01*
X43504Y131612D01*
X39998Y130159D01*
X36202Y130159D01*
G37*
%LPD*%
%LPC*%
G36*
X36202Y180959D02*
X36202Y180959D01*
X32696Y182412D01*
X30012Y185096D01*
X28559Y188602D01*
X28559Y192398D01*
X30012Y195904D01*
X32696Y198588D01*
X36202Y200041D01*
X39998Y200041D01*
X43504Y198588D01*
X46188Y195904D01*
X47641Y192398D01*
X47641Y188602D01*
X46188Y185096D01*
X43504Y182412D01*
X39998Y180959D01*
X36202Y180959D01*
G37*
%LPD*%
%LPC*%
G36*
X36202Y155559D02*
X36202Y155559D01*
X32696Y157012D01*
X30012Y159696D01*
X28559Y163202D01*
X28559Y166998D01*
X30012Y170504D01*
X32696Y173188D01*
X36202Y174641D01*
X39998Y174641D01*
X43504Y173188D01*
X46188Y170504D01*
X47641Y166998D01*
X47641Y163202D01*
X46188Y159696D01*
X43504Y157012D01*
X39998Y155559D01*
X36202Y155559D01*
G37*
%LPD*%
%LPC*%
G36*
X690364Y403619D02*
X690364Y403619D01*
X687063Y404986D01*
X684536Y407513D01*
X683169Y410814D01*
X683169Y414386D01*
X684536Y417687D01*
X687063Y420214D01*
X690364Y421581D01*
X693936Y421581D01*
X697237Y420214D01*
X699764Y417687D01*
X701131Y414386D01*
X701131Y410814D01*
X699764Y407513D01*
X697237Y404986D01*
X693936Y403619D01*
X690364Y403619D01*
G37*
%LPD*%
%LPC*%
G36*
X477307Y128986D02*
X477307Y128986D01*
X474086Y130320D01*
X471620Y132786D01*
X470286Y136007D01*
X470286Y139493D01*
X471620Y142714D01*
X474086Y145180D01*
X477307Y146514D01*
X480793Y146514D01*
X484014Y145180D01*
X486480Y142714D01*
X487814Y139493D01*
X487814Y136007D01*
X486480Y132786D01*
X484014Y130320D01*
X480793Y128986D01*
X477307Y128986D01*
G37*
%LPD*%
%LPC*%
G36*
X197907Y128986D02*
X197907Y128986D01*
X194686Y130320D01*
X192220Y132786D01*
X190886Y136007D01*
X190886Y139493D01*
X192220Y142714D01*
X194686Y145180D01*
X197907Y146514D01*
X201393Y146514D01*
X204614Y145180D01*
X207080Y142714D01*
X208414Y139493D01*
X208414Y136007D01*
X207080Y132786D01*
X204614Y130320D01*
X201393Y128986D01*
X197907Y128986D01*
G37*
%LPD*%
%LPC*%
G36*
X223307Y128986D02*
X223307Y128986D01*
X220086Y130320D01*
X217620Y132786D01*
X216286Y136007D01*
X216286Y139493D01*
X217620Y142714D01*
X220086Y145180D01*
X223307Y146514D01*
X226793Y146514D01*
X230014Y145180D01*
X232480Y142714D01*
X233814Y139493D01*
X233814Y136007D01*
X232480Y132786D01*
X230014Y130320D01*
X226793Y128986D01*
X223307Y128986D01*
G37*
%LPD*%
%LPC*%
G36*
X451907Y128986D02*
X451907Y128986D01*
X448686Y130320D01*
X446220Y132786D01*
X444886Y136007D01*
X444886Y139493D01*
X446220Y142714D01*
X448686Y145180D01*
X451907Y146514D01*
X455393Y146514D01*
X458614Y145180D01*
X461080Y142714D01*
X462414Y139493D01*
X462414Y136007D01*
X461080Y132786D01*
X458614Y130320D01*
X455393Y128986D01*
X451907Y128986D01*
G37*
%LPD*%
%LPC*%
G36*
X582457Y130936D02*
X582457Y130936D01*
X579236Y132270D01*
X576770Y134736D01*
X575436Y137957D01*
X575436Y141443D01*
X576770Y144664D01*
X579236Y147130D01*
X582457Y148464D01*
X585943Y148464D01*
X589164Y147130D01*
X591630Y144664D01*
X592964Y141443D01*
X592964Y137957D01*
X591630Y134736D01*
X589164Y132270D01*
X585943Y130936D01*
X582457Y130936D01*
G37*
%LPD*%
%LPC*%
G36*
X582457Y520826D02*
X582457Y520826D01*
X579236Y522160D01*
X576770Y524626D01*
X575436Y527847D01*
X575436Y531333D01*
X576770Y534554D01*
X579236Y537020D01*
X582457Y538354D01*
X585943Y538354D01*
X589164Y537020D01*
X591630Y534554D01*
X592964Y531333D01*
X592964Y527847D01*
X591630Y524626D01*
X589164Y522160D01*
X585943Y520826D01*
X582457Y520826D01*
G37*
%LPD*%
%LPC*%
G36*
X477307Y459186D02*
X477307Y459186D01*
X474086Y460520D01*
X471620Y462986D01*
X470286Y466207D01*
X470286Y469693D01*
X471620Y472914D01*
X474086Y475380D01*
X477307Y476714D01*
X480793Y476714D01*
X484014Y475380D01*
X486480Y472914D01*
X487814Y469693D01*
X487814Y466207D01*
X486480Y462986D01*
X484014Y460520D01*
X480793Y459186D01*
X477307Y459186D01*
G37*
%LPD*%
%LPC*%
G36*
X87157Y149986D02*
X87157Y149986D01*
X83936Y151320D01*
X81470Y153786D01*
X80136Y157007D01*
X80136Y160493D01*
X81470Y163714D01*
X83936Y166180D01*
X87157Y167514D01*
X90643Y167514D01*
X93864Y166180D01*
X96330Y163714D01*
X97664Y160493D01*
X97664Y157007D01*
X96330Y153786D01*
X93864Y151320D01*
X90643Y149986D01*
X87157Y149986D01*
G37*
%LPD*%
%LPC*%
G36*
X223307Y560786D02*
X223307Y560786D01*
X220086Y562120D01*
X217620Y564586D01*
X216286Y567807D01*
X216286Y571293D01*
X217620Y574514D01*
X220086Y576980D01*
X223307Y578314D01*
X226793Y578314D01*
X230014Y576980D01*
X232480Y574514D01*
X233814Y571293D01*
X233814Y567807D01*
X232480Y564586D01*
X230014Y562120D01*
X226793Y560786D01*
X223307Y560786D01*
G37*
%LPD*%
%LPC*%
G36*
X223307Y509986D02*
X223307Y509986D01*
X220086Y511320D01*
X217620Y513786D01*
X216286Y517007D01*
X216286Y520493D01*
X217620Y523714D01*
X220086Y526180D01*
X223307Y527514D01*
X226793Y527514D01*
X230014Y526180D01*
X232480Y523714D01*
X233814Y520493D01*
X233814Y517007D01*
X232480Y513786D01*
X230014Y511320D01*
X226793Y509986D01*
X223307Y509986D01*
G37*
%LPD*%
%LPC*%
G36*
X197907Y509986D02*
X197907Y509986D01*
X194686Y511320D01*
X192220Y513786D01*
X190886Y517007D01*
X190886Y520493D01*
X192220Y523714D01*
X194686Y526180D01*
X197907Y527514D01*
X201393Y527514D01*
X204614Y526180D01*
X207080Y523714D01*
X208414Y520493D01*
X208414Y517007D01*
X207080Y513786D01*
X204614Y511320D01*
X201393Y509986D01*
X197907Y509986D01*
G37*
%LPD*%
%LPC*%
G36*
X451907Y509986D02*
X451907Y509986D01*
X448686Y511320D01*
X446220Y513786D01*
X444886Y517007D01*
X444886Y520493D01*
X446220Y523714D01*
X448686Y526180D01*
X451907Y527514D01*
X455393Y527514D01*
X458614Y526180D01*
X461080Y523714D01*
X462414Y520493D01*
X462414Y517007D01*
X461080Y513786D01*
X458614Y511320D01*
X455393Y509986D01*
X451907Y509986D01*
G37*
%LPD*%
%LPC*%
G36*
X477307Y154386D02*
X477307Y154386D01*
X474086Y155720D01*
X471620Y158186D01*
X470286Y161407D01*
X470286Y164893D01*
X471620Y168114D01*
X474086Y170580D01*
X477307Y171914D01*
X480793Y171914D01*
X484014Y170580D01*
X486480Y168114D01*
X487814Y164893D01*
X487814Y161407D01*
X486480Y158186D01*
X484014Y155720D01*
X480793Y154386D01*
X477307Y154386D01*
G37*
%LPD*%
%LPC*%
G36*
X451907Y154386D02*
X451907Y154386D01*
X448686Y155720D01*
X446220Y158186D01*
X444886Y161407D01*
X444886Y164893D01*
X446220Y168114D01*
X448686Y170580D01*
X451907Y171914D01*
X455393Y171914D01*
X458614Y170580D01*
X461080Y168114D01*
X462414Y164893D01*
X462414Y161407D01*
X461080Y158186D01*
X458614Y155720D01*
X455393Y154386D01*
X451907Y154386D01*
G37*
%LPD*%
%LPC*%
G36*
X87157Y505586D02*
X87157Y505586D01*
X83936Y506920D01*
X81470Y509386D01*
X80136Y512607D01*
X80136Y516093D01*
X81470Y519314D01*
X83936Y521780D01*
X87157Y523114D01*
X90643Y523114D01*
X93864Y521780D01*
X96330Y519314D01*
X97664Y516093D01*
X97664Y512607D01*
X96330Y509386D01*
X93864Y506920D01*
X90643Y505586D01*
X87157Y505586D01*
G37*
%LPD*%
%LPC*%
G36*
X223307Y154386D02*
X223307Y154386D01*
X220086Y155720D01*
X217620Y158186D01*
X216286Y161407D01*
X216286Y164893D01*
X217620Y168114D01*
X220086Y170580D01*
X223307Y171914D01*
X226793Y171914D01*
X230014Y170580D01*
X232480Y168114D01*
X233814Y164893D01*
X233814Y161407D01*
X232480Y158186D01*
X230014Y155720D01*
X226793Y154386D01*
X223307Y154386D01*
G37*
%LPD*%
%LPC*%
G36*
X197907Y154386D02*
X197907Y154386D01*
X194686Y155720D01*
X192220Y158186D01*
X190886Y161407D01*
X190886Y164893D01*
X192220Y168114D01*
X194686Y170580D01*
X197907Y171914D01*
X201393Y171914D01*
X204614Y170580D01*
X207080Y168114D01*
X208414Y164893D01*
X208414Y161407D01*
X207080Y158186D01*
X204614Y155720D01*
X201393Y154386D01*
X197907Y154386D01*
G37*
%LPD*%
%LPC*%
G36*
X582457Y495426D02*
X582457Y495426D01*
X579236Y496760D01*
X576770Y499226D01*
X575436Y502447D01*
X575436Y505933D01*
X576770Y509154D01*
X579236Y511620D01*
X582457Y512954D01*
X585943Y512954D01*
X589164Y511620D01*
X591630Y509154D01*
X592964Y505933D01*
X592964Y502447D01*
X591630Y499226D01*
X589164Y496760D01*
X585943Y495426D01*
X582457Y495426D01*
G37*
%LPD*%
%LPC*%
G36*
X223307Y484586D02*
X223307Y484586D01*
X220086Y485920D01*
X217620Y488386D01*
X216286Y491607D01*
X216286Y495093D01*
X217620Y498314D01*
X220086Y500780D01*
X223307Y502114D01*
X226793Y502114D01*
X230014Y500780D01*
X232480Y498314D01*
X233814Y495093D01*
X233814Y491607D01*
X232480Y488386D01*
X230014Y485920D01*
X226793Y484586D01*
X223307Y484586D01*
G37*
%LPD*%
%LPC*%
G36*
X451907Y484586D02*
X451907Y484586D01*
X448686Y485920D01*
X446220Y488386D01*
X444886Y491607D01*
X444886Y495093D01*
X446220Y498314D01*
X448686Y500780D01*
X451907Y502114D01*
X455393Y502114D01*
X458614Y500780D01*
X461080Y498314D01*
X462414Y495093D01*
X462414Y491607D01*
X461080Y488386D01*
X458614Y485920D01*
X455393Y484586D01*
X451907Y484586D01*
G37*
%LPD*%
%LPC*%
G36*
X197907Y484586D02*
X197907Y484586D01*
X194686Y485920D01*
X192220Y488386D01*
X190886Y491607D01*
X190886Y495093D01*
X192220Y498314D01*
X194686Y500780D01*
X197907Y502114D01*
X201393Y502114D01*
X204614Y500780D01*
X207080Y498314D01*
X208414Y495093D01*
X208414Y491607D01*
X207080Y488386D01*
X204614Y485920D01*
X201393Y484586D01*
X197907Y484586D01*
G37*
%LPD*%
%LPC*%
G36*
X582457Y156336D02*
X582457Y156336D01*
X579236Y157670D01*
X576770Y160136D01*
X575436Y163357D01*
X575436Y166843D01*
X576770Y170064D01*
X579236Y172530D01*
X582457Y173864D01*
X585943Y173864D01*
X589164Y172530D01*
X591630Y170064D01*
X592964Y166843D01*
X592964Y163357D01*
X591630Y160136D01*
X589164Y157670D01*
X585943Y156336D01*
X582457Y156336D01*
G37*
%LPD*%
%LPC*%
G36*
X197907Y535386D02*
X197907Y535386D01*
X194686Y536720D01*
X192220Y539186D01*
X190886Y542407D01*
X190886Y545893D01*
X192220Y549114D01*
X194686Y551580D01*
X197907Y552914D01*
X201393Y552914D01*
X204614Y551580D01*
X207080Y549114D01*
X208414Y545893D01*
X208414Y542407D01*
X207080Y539186D01*
X204614Y536720D01*
X201393Y535386D01*
X197907Y535386D01*
G37*
%LPD*%
%LPC*%
G36*
X87157Y480186D02*
X87157Y480186D01*
X83936Y481520D01*
X81470Y483986D01*
X80136Y487207D01*
X80136Y490693D01*
X81470Y493914D01*
X83936Y496380D01*
X87157Y497714D01*
X90643Y497714D01*
X93864Y496380D01*
X96330Y493914D01*
X97664Y490693D01*
X97664Y487207D01*
X96330Y483986D01*
X93864Y481520D01*
X90643Y480186D01*
X87157Y480186D01*
G37*
%LPD*%
%LPC*%
G36*
X87157Y175386D02*
X87157Y175386D01*
X83936Y176720D01*
X81470Y179186D01*
X80136Y182407D01*
X80136Y185893D01*
X81470Y189114D01*
X83936Y191580D01*
X87157Y192914D01*
X90643Y192914D01*
X93864Y191580D01*
X96330Y189114D01*
X97664Y185893D01*
X97664Y182407D01*
X96330Y179186D01*
X93864Y176720D01*
X90643Y175386D01*
X87157Y175386D01*
G37*
%LPD*%
%LPC*%
G36*
X477307Y179786D02*
X477307Y179786D01*
X474086Y181120D01*
X471620Y183586D01*
X470286Y186807D01*
X470286Y190293D01*
X471620Y193514D01*
X474086Y195980D01*
X477307Y197314D01*
X480793Y197314D01*
X484014Y195980D01*
X486480Y193514D01*
X487814Y190293D01*
X487814Y186807D01*
X486480Y183586D01*
X484014Y181120D01*
X480793Y179786D01*
X477307Y179786D01*
G37*
%LPD*%
%LPC*%
G36*
X223307Y179786D02*
X223307Y179786D01*
X220086Y181120D01*
X217620Y183586D01*
X216286Y186807D01*
X216286Y190293D01*
X217620Y193514D01*
X220086Y195980D01*
X223307Y197314D01*
X226793Y197314D01*
X230014Y195980D01*
X232480Y193514D01*
X233814Y190293D01*
X233814Y186807D01*
X232480Y183586D01*
X230014Y181120D01*
X226793Y179786D01*
X223307Y179786D01*
G37*
%LPD*%
%LPC*%
G36*
X197907Y179786D02*
X197907Y179786D01*
X194686Y181120D01*
X192220Y183586D01*
X190886Y186807D01*
X190886Y190293D01*
X192220Y193514D01*
X194686Y195980D01*
X197907Y197314D01*
X201393Y197314D01*
X204614Y195980D01*
X207080Y193514D01*
X208414Y190293D01*
X208414Y186807D01*
X207080Y183586D01*
X204614Y181120D01*
X201393Y179786D01*
X197907Y179786D01*
G37*
%LPD*%
%LPC*%
G36*
X582457Y470026D02*
X582457Y470026D01*
X579236Y471360D01*
X576770Y473826D01*
X575436Y477047D01*
X575436Y480533D01*
X576770Y483754D01*
X579236Y486220D01*
X582457Y487554D01*
X585943Y487554D01*
X589164Y486220D01*
X591630Y483754D01*
X592964Y480533D01*
X592964Y477047D01*
X591630Y473826D01*
X589164Y471360D01*
X585943Y470026D01*
X582457Y470026D01*
G37*
%LPD*%
%LPC*%
G36*
X451907Y179786D02*
X451907Y179786D01*
X448686Y181120D01*
X446220Y183586D01*
X444886Y186807D01*
X444886Y190293D01*
X446220Y193514D01*
X448686Y195980D01*
X451907Y197314D01*
X455393Y197314D01*
X458614Y195980D01*
X461080Y193514D01*
X462414Y190293D01*
X462414Y186807D01*
X461080Y183586D01*
X458614Y181120D01*
X455393Y179786D01*
X451907Y179786D01*
G37*
%LPD*%
%LPC*%
G36*
X582457Y181736D02*
X582457Y181736D01*
X579236Y183070D01*
X576770Y185536D01*
X575436Y188757D01*
X575436Y192243D01*
X576770Y195464D01*
X579236Y197930D01*
X582457Y199264D01*
X585943Y199264D01*
X589164Y197930D01*
X591630Y195464D01*
X592964Y192243D01*
X592964Y188757D01*
X591630Y185536D01*
X589164Y183070D01*
X585943Y181736D01*
X582457Y181736D01*
G37*
%LPD*%
%LPC*%
G36*
X197907Y560786D02*
X197907Y560786D01*
X194686Y562120D01*
X192220Y564586D01*
X190886Y567807D01*
X190886Y571293D01*
X192220Y574514D01*
X194686Y576980D01*
X197907Y578314D01*
X201393Y578314D01*
X204614Y576980D01*
X207080Y574514D01*
X208414Y571293D01*
X208414Y567807D01*
X207080Y564586D01*
X204614Y562120D01*
X201393Y560786D01*
X197907Y560786D01*
G37*
%LPD*%
%LPC*%
G36*
X197907Y459186D02*
X197907Y459186D01*
X194686Y460520D01*
X192220Y462986D01*
X190886Y466207D01*
X190886Y469693D01*
X192220Y472914D01*
X194686Y475380D01*
X197907Y476714D01*
X201393Y476714D01*
X204614Y475380D01*
X207080Y472914D01*
X208414Y469693D01*
X208414Y466207D01*
X207080Y462986D01*
X204614Y460520D01*
X201393Y459186D01*
X197907Y459186D01*
G37*
%LPD*%
%LPC*%
G36*
X223307Y459186D02*
X223307Y459186D01*
X220086Y460520D01*
X217620Y462986D01*
X216286Y466207D01*
X216286Y469693D01*
X217620Y472914D01*
X220086Y475380D01*
X223307Y476714D01*
X226793Y476714D01*
X230014Y475380D01*
X232480Y472914D01*
X233814Y469693D01*
X233814Y466207D01*
X232480Y462986D01*
X230014Y460520D01*
X226793Y459186D01*
X223307Y459186D01*
G37*
%LPD*%
%LPC*%
G36*
X451907Y459186D02*
X451907Y459186D01*
X448686Y460520D01*
X446220Y462986D01*
X444886Y466207D01*
X444886Y469693D01*
X446220Y472914D01*
X448686Y475380D01*
X451907Y476714D01*
X455393Y476714D01*
X458614Y475380D01*
X461080Y472914D01*
X462414Y469693D01*
X462414Y466207D01*
X461080Y462986D01*
X458614Y460520D01*
X455393Y459186D01*
X451907Y459186D01*
G37*
%LPD*%
%LPC*%
G36*
X87157Y454786D02*
X87157Y454786D01*
X83936Y456120D01*
X81470Y458586D01*
X80136Y461807D01*
X80136Y465293D01*
X81470Y468514D01*
X83936Y470980D01*
X87157Y472314D01*
X90643Y472314D01*
X93864Y470980D01*
X96330Y468514D01*
X97664Y465293D01*
X97664Y461807D01*
X96330Y458586D01*
X93864Y456120D01*
X90643Y454786D01*
X87157Y454786D01*
G37*
%LPD*%
%LPC*%
G36*
X451907Y560786D02*
X451907Y560786D01*
X448686Y562120D01*
X446220Y564586D01*
X444886Y567807D01*
X444886Y571293D01*
X446220Y574514D01*
X448686Y576980D01*
X451907Y578314D01*
X455393Y578314D01*
X458614Y576980D01*
X461080Y574514D01*
X462414Y571293D01*
X462414Y567807D01*
X461080Y564586D01*
X458614Y562120D01*
X455393Y560786D01*
X451907Y560786D01*
G37*
%LPD*%
%LPC*%
G36*
X223307Y433786D02*
X223307Y433786D01*
X220086Y435120D01*
X217620Y437586D01*
X216286Y440807D01*
X216286Y444293D01*
X217620Y447514D01*
X220086Y449980D01*
X223307Y451314D01*
X226793Y451314D01*
X230014Y449980D01*
X232480Y447514D01*
X233814Y444293D01*
X233814Y440807D01*
X232480Y437586D01*
X230014Y435120D01*
X226793Y433786D01*
X223307Y433786D01*
G37*
%LPD*%
%LPC*%
G36*
X197907Y433786D02*
X197907Y433786D01*
X194686Y435120D01*
X192220Y437586D01*
X190886Y440807D01*
X190886Y444293D01*
X192220Y447514D01*
X194686Y449980D01*
X197907Y451314D01*
X201393Y451314D01*
X204614Y449980D01*
X207080Y447514D01*
X208414Y444293D01*
X208414Y440807D01*
X207080Y437586D01*
X204614Y435120D01*
X201393Y433786D01*
X197907Y433786D01*
G37*
%LPD*%
%LPC*%
G36*
X477307Y433786D02*
X477307Y433786D01*
X474086Y435120D01*
X471620Y437586D01*
X470286Y440807D01*
X470286Y444293D01*
X471620Y447514D01*
X474086Y449980D01*
X477307Y451314D01*
X480793Y451314D01*
X484014Y449980D01*
X486480Y447514D01*
X487814Y444293D01*
X487814Y440807D01*
X486480Y437586D01*
X484014Y435120D01*
X480793Y433786D01*
X477307Y433786D01*
G37*
%LPD*%
%LPC*%
G36*
X451907Y433786D02*
X451907Y433786D01*
X448686Y435120D01*
X446220Y437586D01*
X444886Y440807D01*
X444886Y444293D01*
X446220Y447514D01*
X448686Y449980D01*
X451907Y451314D01*
X455393Y451314D01*
X458614Y449980D01*
X461080Y447514D01*
X462414Y444293D01*
X462414Y440807D01*
X461080Y437586D01*
X458614Y435120D01*
X455393Y433786D01*
X451907Y433786D01*
G37*
%LPD*%
%LPC*%
G36*
X197907Y408386D02*
X197907Y408386D01*
X194686Y409720D01*
X192220Y412186D01*
X190886Y415407D01*
X190886Y418893D01*
X192220Y422114D01*
X194686Y424580D01*
X197907Y425914D01*
X201393Y425914D01*
X204614Y424580D01*
X207080Y422114D01*
X208414Y418893D01*
X208414Y415407D01*
X207080Y412186D01*
X204614Y409720D01*
X201393Y408386D01*
X197907Y408386D01*
G37*
%LPD*%
%LPC*%
G36*
X451907Y408386D02*
X451907Y408386D01*
X448686Y409720D01*
X446220Y412186D01*
X444886Y415407D01*
X444886Y418893D01*
X446220Y422114D01*
X448686Y424580D01*
X451907Y425914D01*
X455393Y425914D01*
X458614Y424580D01*
X461080Y422114D01*
X462414Y418893D01*
X462414Y415407D01*
X461080Y412186D01*
X458614Y409720D01*
X455393Y408386D01*
X451907Y408386D01*
G37*
%LPD*%
%LPC*%
G36*
X477307Y408386D02*
X477307Y408386D01*
X474086Y409720D01*
X471620Y412186D01*
X470286Y415407D01*
X470286Y418893D01*
X471620Y422114D01*
X474086Y424580D01*
X477307Y425914D01*
X480793Y425914D01*
X484014Y424580D01*
X486480Y422114D01*
X487814Y418893D01*
X487814Y415407D01*
X486480Y412186D01*
X484014Y409720D01*
X480793Y408386D01*
X477307Y408386D01*
G37*
%LPD*%
%LPC*%
G36*
X223307Y535386D02*
X223307Y535386D01*
X220086Y536720D01*
X217620Y539186D01*
X216286Y542407D01*
X216286Y545893D01*
X217620Y549114D01*
X220086Y551580D01*
X223307Y552914D01*
X226793Y552914D01*
X230014Y551580D01*
X232480Y549114D01*
X233814Y545893D01*
X233814Y542407D01*
X232480Y539186D01*
X230014Y536720D01*
X226793Y535386D01*
X223307Y535386D01*
G37*
%LPD*%
%LPC*%
G36*
X477307Y255986D02*
X477307Y255986D01*
X474086Y257320D01*
X471620Y259786D01*
X470286Y263007D01*
X470286Y266493D01*
X471620Y269714D01*
X474086Y272180D01*
X477307Y273514D01*
X480793Y273514D01*
X484014Y272180D01*
X486480Y269714D01*
X487814Y266493D01*
X487814Y263007D01*
X486480Y259786D01*
X484014Y257320D01*
X480793Y255986D01*
X477307Y255986D01*
G37*
%LPD*%
%LPC*%
G36*
X477307Y535386D02*
X477307Y535386D01*
X474086Y536720D01*
X471620Y539186D01*
X470286Y542407D01*
X470286Y545893D01*
X471620Y549114D01*
X474086Y551580D01*
X477307Y552914D01*
X480793Y552914D01*
X484014Y551580D01*
X486480Y549114D01*
X487814Y545893D01*
X487814Y542407D01*
X486480Y539186D01*
X484014Y536720D01*
X480793Y535386D01*
X477307Y535386D01*
G37*
%LPD*%
%LPC*%
G36*
X87157Y200786D02*
X87157Y200786D01*
X83936Y202120D01*
X81470Y204586D01*
X80136Y207807D01*
X80136Y211293D01*
X81470Y214514D01*
X83936Y216980D01*
X87157Y218314D01*
X90643Y218314D01*
X93864Y216980D01*
X96330Y214514D01*
X97664Y211293D01*
X97664Y207807D01*
X96330Y204586D01*
X93864Y202120D01*
X90643Y200786D01*
X87157Y200786D01*
G37*
%LPD*%
%LPC*%
G36*
X477307Y205186D02*
X477307Y205186D01*
X474086Y206520D01*
X471620Y208986D01*
X470286Y212207D01*
X470286Y215693D01*
X471620Y218914D01*
X474086Y221380D01*
X477307Y222714D01*
X480793Y222714D01*
X484014Y221380D01*
X486480Y218914D01*
X487814Y215693D01*
X487814Y212207D01*
X486480Y208986D01*
X484014Y206520D01*
X480793Y205186D01*
X477307Y205186D01*
G37*
%LPD*%
%LPC*%
G36*
X477307Y560786D02*
X477307Y560786D01*
X474086Y562120D01*
X471620Y564586D01*
X470286Y567807D01*
X470286Y571293D01*
X471620Y574514D01*
X474086Y576980D01*
X477307Y578314D01*
X480793Y578314D01*
X484014Y576980D01*
X486480Y574514D01*
X487814Y571293D01*
X487814Y567807D01*
X486480Y564586D01*
X484014Y562120D01*
X480793Y560786D01*
X477307Y560786D01*
G37*
%LPD*%
%LPC*%
G36*
X451907Y382986D02*
X451907Y382986D01*
X448686Y384320D01*
X446220Y386786D01*
X444886Y390007D01*
X444886Y393493D01*
X446220Y396714D01*
X448686Y399180D01*
X451907Y400514D01*
X455393Y400514D01*
X458614Y399180D01*
X461080Y396714D01*
X462414Y393493D01*
X462414Y390007D01*
X461080Y386786D01*
X458614Y384320D01*
X455393Y382986D01*
X451907Y382986D01*
G37*
%LPD*%
%LPC*%
G36*
X197907Y382986D02*
X197907Y382986D01*
X194686Y384320D01*
X192220Y386786D01*
X190886Y390007D01*
X190886Y393493D01*
X192220Y396714D01*
X194686Y399180D01*
X197907Y400514D01*
X201393Y400514D01*
X204614Y399180D01*
X207080Y396714D01*
X208414Y393493D01*
X208414Y390007D01*
X207080Y386786D01*
X204614Y384320D01*
X201393Y382986D01*
X197907Y382986D01*
G37*
%LPD*%
%LPC*%
G36*
X223307Y382986D02*
X223307Y382986D01*
X220086Y384320D01*
X217620Y386786D01*
X216286Y390007D01*
X216286Y393493D01*
X217620Y396714D01*
X220086Y399180D01*
X223307Y400514D01*
X226793Y400514D01*
X230014Y399180D01*
X232480Y396714D01*
X233814Y393493D01*
X233814Y390007D01*
X232480Y386786D01*
X230014Y384320D01*
X226793Y382986D01*
X223307Y382986D01*
G37*
%LPD*%
%LPC*%
G36*
X477307Y382986D02*
X477307Y382986D01*
X474086Y384320D01*
X471620Y386786D01*
X470286Y390007D01*
X470286Y393493D01*
X471620Y396714D01*
X474086Y399180D01*
X477307Y400514D01*
X480793Y400514D01*
X484014Y399180D01*
X486480Y396714D01*
X487814Y393493D01*
X487814Y390007D01*
X486480Y386786D01*
X484014Y384320D01*
X480793Y382986D01*
X477307Y382986D01*
G37*
%LPD*%
%LPC*%
G36*
X197907Y205186D02*
X197907Y205186D01*
X194686Y206520D01*
X192220Y208986D01*
X190886Y212207D01*
X190886Y215693D01*
X192220Y218914D01*
X194686Y221380D01*
X197907Y222714D01*
X201393Y222714D01*
X204614Y221380D01*
X207080Y218914D01*
X208414Y215693D01*
X208414Y212207D01*
X207080Y208986D01*
X204614Y206520D01*
X201393Y205186D01*
X197907Y205186D01*
G37*
%LPD*%
%LPC*%
G36*
X451907Y205186D02*
X451907Y205186D01*
X448686Y206520D01*
X446220Y208986D01*
X444886Y212207D01*
X444886Y215693D01*
X446220Y218914D01*
X448686Y221380D01*
X451907Y222714D01*
X455393Y222714D01*
X458614Y221380D01*
X461080Y218914D01*
X462414Y215693D01*
X462414Y212207D01*
X461080Y208986D01*
X458614Y206520D01*
X455393Y205186D01*
X451907Y205186D01*
G37*
%LPD*%
%LPC*%
G36*
X223307Y205186D02*
X223307Y205186D01*
X220086Y206520D01*
X217620Y208986D01*
X216286Y212207D01*
X216286Y215693D01*
X217620Y218914D01*
X220086Y221380D01*
X223307Y222714D01*
X226793Y222714D01*
X230014Y221380D01*
X232480Y218914D01*
X233814Y215693D01*
X233814Y212207D01*
X232480Y208986D01*
X230014Y206520D01*
X226793Y205186D01*
X223307Y205186D01*
G37*
%LPD*%
%LPC*%
G36*
X451907Y535386D02*
X451907Y535386D01*
X448686Y536720D01*
X446220Y539186D01*
X444886Y542407D01*
X444886Y545893D01*
X446220Y549114D01*
X448686Y551580D01*
X451907Y552914D01*
X455393Y552914D01*
X458614Y551580D01*
X461080Y549114D01*
X462414Y545893D01*
X462414Y542407D01*
X461080Y539186D01*
X458614Y536720D01*
X455393Y535386D01*
X451907Y535386D01*
G37*
%LPD*%
%LPC*%
G36*
X197907Y357586D02*
X197907Y357586D01*
X194686Y358920D01*
X192220Y361386D01*
X190886Y364607D01*
X190886Y368093D01*
X192220Y371314D01*
X194686Y373780D01*
X197907Y375114D01*
X201393Y375114D01*
X204614Y373780D01*
X207080Y371314D01*
X208414Y368093D01*
X208414Y364607D01*
X207080Y361386D01*
X204614Y358920D01*
X201393Y357586D01*
X197907Y357586D01*
G37*
%LPD*%
%LPC*%
G36*
X223307Y357586D02*
X223307Y357586D01*
X220086Y358920D01*
X217620Y361386D01*
X216286Y364607D01*
X216286Y368093D01*
X217620Y371314D01*
X220086Y373780D01*
X223307Y375114D01*
X226793Y375114D01*
X230014Y373780D01*
X232480Y371314D01*
X233814Y368093D01*
X233814Y364607D01*
X232480Y361386D01*
X230014Y358920D01*
X226793Y357586D01*
X223307Y357586D01*
G37*
%LPD*%
%LPC*%
G36*
X451907Y357586D02*
X451907Y357586D01*
X448686Y358920D01*
X446220Y361386D01*
X444886Y364607D01*
X444886Y368093D01*
X446220Y371314D01*
X448686Y373780D01*
X451907Y375114D01*
X455393Y375114D01*
X458614Y373780D01*
X461080Y371314D01*
X462414Y368093D01*
X462414Y364607D01*
X461080Y361386D01*
X458614Y358920D01*
X455393Y357586D01*
X451907Y357586D01*
G37*
%LPD*%
%LPC*%
G36*
X477307Y357586D02*
X477307Y357586D01*
X474086Y358920D01*
X471620Y361386D01*
X470286Y364607D01*
X470286Y368093D01*
X471620Y371314D01*
X474086Y373780D01*
X477307Y375114D01*
X480793Y375114D01*
X484014Y373780D01*
X486480Y371314D01*
X487814Y368093D01*
X487814Y364607D01*
X486480Y361386D01*
X484014Y358920D01*
X480793Y357586D01*
X477307Y357586D01*
G37*
%LPD*%
%LPC*%
G36*
X582457Y346836D02*
X582457Y346836D01*
X579236Y348170D01*
X576770Y350636D01*
X575436Y353857D01*
X575436Y357343D01*
X576770Y360564D01*
X579236Y363030D01*
X582457Y364364D01*
X585943Y364364D01*
X589164Y363030D01*
X591630Y360564D01*
X592964Y357343D01*
X592964Y353857D01*
X591630Y350636D01*
X589164Y348170D01*
X585943Y346836D01*
X582457Y346836D01*
G37*
%LPD*%
%LPC*%
G36*
X477307Y332186D02*
X477307Y332186D01*
X474086Y333520D01*
X471620Y335986D01*
X470286Y339207D01*
X470286Y342693D01*
X471620Y345914D01*
X474086Y348380D01*
X477307Y349714D01*
X480793Y349714D01*
X484014Y348380D01*
X486480Y345914D01*
X487814Y342693D01*
X487814Y339207D01*
X486480Y335986D01*
X484014Y333520D01*
X480793Y332186D01*
X477307Y332186D01*
G37*
%LPD*%
%LPC*%
G36*
X197907Y332186D02*
X197907Y332186D01*
X194686Y333520D01*
X192220Y335986D01*
X190886Y339207D01*
X190886Y342693D01*
X192220Y345914D01*
X194686Y348380D01*
X197907Y349714D01*
X201393Y349714D01*
X204614Y348380D01*
X207080Y345914D01*
X208414Y342693D01*
X208414Y339207D01*
X207080Y335986D01*
X204614Y333520D01*
X201393Y332186D01*
X197907Y332186D01*
G37*
%LPD*%
%LPC*%
G36*
X223307Y332186D02*
X223307Y332186D01*
X220086Y333520D01*
X217620Y335986D01*
X216286Y339207D01*
X216286Y342693D01*
X217620Y345914D01*
X220086Y348380D01*
X223307Y349714D01*
X226793Y349714D01*
X230014Y348380D01*
X232480Y345914D01*
X233814Y342693D01*
X233814Y339207D01*
X232480Y335986D01*
X230014Y333520D01*
X226793Y332186D01*
X223307Y332186D01*
G37*
%LPD*%
%LPC*%
G36*
X451907Y332186D02*
X451907Y332186D01*
X448686Y333520D01*
X446220Y335986D01*
X444886Y339207D01*
X444886Y342693D01*
X446220Y345914D01*
X448686Y348380D01*
X451907Y349714D01*
X455393Y349714D01*
X458614Y348380D01*
X461080Y345914D01*
X462414Y342693D01*
X462414Y339207D01*
X461080Y335986D01*
X458614Y333520D01*
X455393Y332186D01*
X451907Y332186D01*
G37*
%LPD*%
%LPC*%
G36*
X582457Y321436D02*
X582457Y321436D01*
X579236Y322770D01*
X576770Y325236D01*
X575436Y328457D01*
X575436Y331943D01*
X576770Y335164D01*
X579236Y337630D01*
X582457Y338964D01*
X585943Y338964D01*
X589164Y337630D01*
X591630Y335164D01*
X592964Y331943D01*
X592964Y328457D01*
X591630Y325236D01*
X589164Y322770D01*
X585943Y321436D01*
X582457Y321436D01*
G37*
%LPD*%
%LPC*%
G36*
X451907Y306786D02*
X451907Y306786D01*
X448686Y308120D01*
X446220Y310586D01*
X444886Y313807D01*
X444886Y317293D01*
X446220Y320514D01*
X448686Y322980D01*
X451907Y324314D01*
X455393Y324314D01*
X458614Y322980D01*
X461080Y320514D01*
X462414Y317293D01*
X462414Y313807D01*
X461080Y310586D01*
X458614Y308120D01*
X455393Y306786D01*
X451907Y306786D01*
G37*
%LPD*%
%LPC*%
G36*
X477307Y306786D02*
X477307Y306786D01*
X474086Y308120D01*
X471620Y310586D01*
X470286Y313807D01*
X470286Y317293D01*
X471620Y320514D01*
X474086Y322980D01*
X477307Y324314D01*
X480793Y324314D01*
X484014Y322980D01*
X486480Y320514D01*
X487814Y317293D01*
X487814Y313807D01*
X486480Y310586D01*
X484014Y308120D01*
X480793Y306786D01*
X477307Y306786D01*
G37*
%LPD*%
%LPC*%
G36*
X582457Y296036D02*
X582457Y296036D01*
X579236Y297370D01*
X576770Y299836D01*
X575436Y303057D01*
X575436Y306543D01*
X576770Y309764D01*
X579236Y312230D01*
X582457Y313564D01*
X585943Y313564D01*
X589164Y312230D01*
X591630Y309764D01*
X592964Y306543D01*
X592964Y303057D01*
X591630Y299836D01*
X589164Y297370D01*
X585943Y296036D01*
X582457Y296036D01*
G37*
%LPD*%
%LPC*%
G36*
X451907Y281386D02*
X451907Y281386D01*
X448686Y282720D01*
X446220Y285186D01*
X444886Y288407D01*
X444886Y291893D01*
X446220Y295114D01*
X448686Y297580D01*
X451907Y298914D01*
X455393Y298914D01*
X458614Y297580D01*
X461080Y295114D01*
X462414Y291893D01*
X462414Y288407D01*
X461080Y285186D01*
X458614Y282720D01*
X455393Y281386D01*
X451907Y281386D01*
G37*
%LPD*%
%LPC*%
G36*
X197907Y281386D02*
X197907Y281386D01*
X194686Y282720D01*
X192220Y285186D01*
X190886Y288407D01*
X190886Y291893D01*
X192220Y295114D01*
X194686Y297580D01*
X197907Y298914D01*
X201393Y298914D01*
X204614Y297580D01*
X207080Y295114D01*
X208414Y291893D01*
X208414Y288407D01*
X207080Y285186D01*
X204614Y282720D01*
X201393Y281386D01*
X197907Y281386D01*
G37*
%LPD*%
%LPC*%
G36*
X477307Y281386D02*
X477307Y281386D01*
X474086Y282720D01*
X471620Y285186D01*
X470286Y288407D01*
X470286Y291893D01*
X471620Y295114D01*
X474086Y297580D01*
X477307Y298914D01*
X480793Y298914D01*
X484014Y297580D01*
X486480Y295114D01*
X487814Y291893D01*
X487814Y288407D01*
X486480Y285186D01*
X484014Y282720D01*
X480793Y281386D01*
X477307Y281386D01*
G37*
%LPD*%
%LPC*%
G36*
X223307Y230586D02*
X223307Y230586D01*
X220086Y231920D01*
X217620Y234386D01*
X216286Y237607D01*
X216286Y241093D01*
X217620Y244314D01*
X220086Y246780D01*
X223307Y248114D01*
X226793Y248114D01*
X230014Y246780D01*
X232480Y244314D01*
X233814Y241093D01*
X233814Y237607D01*
X232480Y234386D01*
X230014Y231920D01*
X226793Y230586D01*
X223307Y230586D01*
G37*
%LPD*%
%LPC*%
G36*
X451907Y230586D02*
X451907Y230586D01*
X448686Y231920D01*
X446220Y234386D01*
X444886Y237607D01*
X444886Y241093D01*
X446220Y244314D01*
X448686Y246780D01*
X451907Y248114D01*
X455393Y248114D01*
X458614Y246780D01*
X461080Y244314D01*
X462414Y241093D01*
X462414Y237607D01*
X461080Y234386D01*
X458614Y231920D01*
X455393Y230586D01*
X451907Y230586D01*
G37*
%LPD*%
%LPC*%
G36*
X477307Y230586D02*
X477307Y230586D01*
X474086Y231920D01*
X471620Y234386D01*
X470286Y237607D01*
X470286Y241093D01*
X471620Y244314D01*
X474086Y246780D01*
X477307Y248114D01*
X480793Y248114D01*
X484014Y246780D01*
X486480Y244314D01*
X487814Y241093D01*
X487814Y237607D01*
X486480Y234386D01*
X484014Y231920D01*
X480793Y230586D01*
X477307Y230586D01*
G37*
%LPD*%
%LPC*%
G36*
X197907Y230586D02*
X197907Y230586D01*
X194686Y231920D01*
X192220Y234386D01*
X190886Y237607D01*
X190886Y241093D01*
X192220Y244314D01*
X194686Y246780D01*
X197907Y248114D01*
X201393Y248114D01*
X204614Y246780D01*
X207080Y244314D01*
X208414Y241093D01*
X208414Y237607D01*
X207080Y234386D01*
X204614Y231920D01*
X201393Y230586D01*
X197907Y230586D01*
G37*
%LPD*%
%LPC*%
G36*
X451907Y255986D02*
X451907Y255986D01*
X448686Y257320D01*
X446220Y259786D01*
X444886Y263007D01*
X444886Y266493D01*
X446220Y269714D01*
X448686Y272180D01*
X451907Y273514D01*
X455393Y273514D01*
X458614Y272180D01*
X461080Y269714D01*
X462414Y266493D01*
X462414Y263007D01*
X461080Y259786D01*
X458614Y257320D01*
X455393Y255986D01*
X451907Y255986D01*
G37*
%LPD*%
%LPC*%
G36*
X747681Y189459D02*
X747681Y189459D01*
X744689Y190699D01*
X742399Y192989D01*
X741159Y195981D01*
X741159Y199219D01*
X742399Y202211D01*
X744689Y204501D01*
X747681Y205741D01*
X750919Y205741D01*
X753911Y204501D01*
X756201Y202211D01*
X757441Y199219D01*
X757441Y195981D01*
X756201Y192989D01*
X753911Y190699D01*
X750919Y189459D01*
X747681Y189459D01*
G37*
%LPD*%
%LPC*%
G36*
X747681Y124459D02*
X747681Y124459D01*
X744689Y125699D01*
X742399Y127989D01*
X741159Y130981D01*
X741159Y134219D01*
X742399Y137211D01*
X744689Y139501D01*
X747681Y140741D01*
X750919Y140741D01*
X753911Y139501D01*
X756201Y137211D01*
X757441Y134219D01*
X757441Y130981D01*
X756201Y127989D01*
X753911Y125699D01*
X750919Y124459D01*
X747681Y124459D01*
G37*
%LPD*%
%LPC*%
G36*
X157593Y44985D02*
X157593Y44985D01*
X155456Y45870D01*
X153820Y47506D01*
X152935Y49643D01*
X152935Y51957D01*
X153820Y54094D01*
X155456Y55730D01*
X157593Y56615D01*
X159907Y56615D01*
X162044Y55730D01*
X163680Y54094D01*
X164565Y51957D01*
X164565Y49643D01*
X163680Y47506D01*
X162044Y45870D01*
X159907Y44985D01*
X157593Y44985D01*
G37*
%LPD*%
%LPC*%
G36*
X40599Y548599D02*
X40599Y548599D01*
X40599Y555320D01*
X41762Y554942D01*
X43101Y554260D01*
X44315Y553377D01*
X45377Y552315D01*
X46260Y551101D01*
X46942Y549762D01*
X47320Y548599D01*
X40599Y548599D01*
G37*
%LPD*%
%LPC*%
G36*
X40599Y543601D02*
X40599Y543601D01*
X47320Y543601D01*
X46942Y542438D01*
X46260Y541099D01*
X45377Y539885D01*
X44315Y538823D01*
X43101Y537940D01*
X41762Y537258D01*
X40599Y536880D01*
X40599Y543601D01*
G37*
%LPD*%
%LPC*%
G36*
X28880Y548599D02*
X28880Y548599D01*
X29258Y549762D01*
X29940Y551101D01*
X30823Y552315D01*
X31885Y553377D01*
X33099Y554260D01*
X34438Y554942D01*
X35601Y555320D01*
X35601Y548599D01*
X28880Y548599D01*
G37*
%LPD*%
%LPC*%
G36*
X34438Y537258D02*
X34438Y537258D01*
X33099Y537940D01*
X31885Y538823D01*
X30823Y539885D01*
X29940Y541099D01*
X29258Y542438D01*
X28880Y543601D01*
X35601Y543601D01*
X35601Y536880D01*
X34438Y537258D01*
G37*
%LPD*%
%LPC*%
G36*
X694449Y484899D02*
X694449Y484899D01*
X694449Y491299D01*
X694770Y491236D01*
X696404Y490559D01*
X697875Y489576D01*
X699126Y488325D01*
X700109Y486854D01*
X700786Y485220D01*
X700849Y484899D01*
X694449Y484899D01*
G37*
%LPD*%
%LPC*%
G36*
X694449Y480301D02*
X694449Y480301D01*
X700849Y480301D01*
X700786Y479980D01*
X700109Y478346D01*
X699126Y476875D01*
X697875Y475624D01*
X696404Y474641D01*
X694770Y473964D01*
X694449Y473901D01*
X694449Y480301D01*
G37*
%LPD*%
%LPC*%
G36*
X683451Y484899D02*
X683451Y484899D01*
X683514Y485220D01*
X684191Y486854D01*
X685174Y488325D01*
X686425Y489576D01*
X687896Y490559D01*
X689530Y491236D01*
X689851Y491299D01*
X689851Y484899D01*
X683451Y484899D01*
G37*
%LPD*%
%LPC*%
G36*
X689530Y473964D02*
X689530Y473964D01*
X687896Y474641D01*
X686425Y475624D01*
X685174Y476875D01*
X684191Y478346D01*
X683514Y479980D01*
X683451Y480301D01*
X689851Y480301D01*
X689851Y473901D01*
X689530Y473964D01*
G37*
%LPD*%
%LPC*%
G36*
X586422Y383222D02*
X586422Y383222D01*
X586422Y389493D01*
X586756Y389427D01*
X588351Y388766D01*
X589787Y387807D01*
X591007Y386587D01*
X591966Y385151D01*
X592627Y383556D01*
X592693Y383222D01*
X586422Y383222D01*
G37*
%LPD*%
%LPC*%
G36*
X586422Y218122D02*
X586422Y218122D01*
X586422Y224393D01*
X586756Y224327D01*
X588351Y223666D01*
X589787Y222707D01*
X591007Y221487D01*
X591966Y220051D01*
X592627Y218456D01*
X592693Y218122D01*
X586422Y218122D01*
G37*
%LPD*%
%LPC*%
G36*
X481272Y520972D02*
X481272Y520972D01*
X481272Y527243D01*
X481606Y527177D01*
X483201Y526516D01*
X484637Y525557D01*
X485857Y524337D01*
X486816Y522901D01*
X487477Y521306D01*
X487543Y520972D01*
X481272Y520972D01*
G37*
%LPD*%
%LPC*%
G36*
X481272Y495572D02*
X481272Y495572D01*
X481272Y501843D01*
X481606Y501777D01*
X483201Y501116D01*
X484637Y500157D01*
X485857Y498937D01*
X486816Y497501D01*
X487477Y495906D01*
X487543Y495572D01*
X481272Y495572D01*
G37*
%LPD*%
%LPC*%
G36*
X91122Y541972D02*
X91122Y541972D01*
X91122Y548243D01*
X91456Y548177D01*
X93051Y547516D01*
X94487Y546557D01*
X95707Y545337D01*
X96666Y543901D01*
X97327Y542306D01*
X97393Y541972D01*
X91122Y541972D01*
G37*
%LPD*%
%LPC*%
G36*
X91122Y237172D02*
X91122Y237172D01*
X91122Y243443D01*
X91456Y243377D01*
X93051Y242716D01*
X94487Y241757D01*
X95707Y240537D01*
X96666Y239101D01*
X97327Y237506D01*
X97393Y237172D01*
X91122Y237172D01*
G37*
%LPD*%
%LPC*%
G36*
X586422Y557212D02*
X586422Y557212D01*
X586422Y563483D01*
X586756Y563417D01*
X588351Y562756D01*
X589787Y561797D01*
X591007Y560577D01*
X591966Y559141D01*
X592627Y557546D01*
X592693Y557212D01*
X586422Y557212D01*
G37*
%LPD*%
%LPC*%
G36*
X227272Y292372D02*
X227272Y292372D01*
X227272Y298643D01*
X227606Y298577D01*
X229201Y297916D01*
X230637Y296957D01*
X231857Y295737D01*
X232816Y294301D01*
X233477Y292706D01*
X233543Y292372D01*
X227272Y292372D01*
G37*
%LPD*%
%LPC*%
G36*
X227272Y419372D02*
X227272Y419372D01*
X227272Y425643D01*
X227606Y425577D01*
X229201Y424916D01*
X230637Y423957D01*
X231857Y422737D01*
X232816Y421301D01*
X233477Y419706D01*
X233543Y419372D01*
X227272Y419372D01*
G37*
%LPD*%
%LPC*%
G36*
X216557Y419372D02*
X216557Y419372D01*
X216623Y419706D01*
X217284Y421301D01*
X218243Y422737D01*
X219463Y423957D01*
X220899Y424916D01*
X222494Y425577D01*
X222828Y425643D01*
X222828Y419372D01*
X216557Y419372D01*
G37*
%LPD*%
%LPC*%
G36*
X481272Y491128D02*
X481272Y491128D01*
X487543Y491128D01*
X487477Y490794D01*
X486816Y489199D01*
X485857Y487763D01*
X484637Y486543D01*
X483201Y485584D01*
X481606Y484923D01*
X481272Y484857D01*
X481272Y491128D01*
G37*
%LPD*%
%LPC*%
G36*
X586422Y213678D02*
X586422Y213678D01*
X592693Y213678D01*
X592627Y213344D01*
X591966Y211749D01*
X591007Y210313D01*
X589787Y209093D01*
X588351Y208134D01*
X586756Y207473D01*
X586422Y207407D01*
X586422Y213678D01*
G37*
%LPD*%
%LPC*%
G36*
X575707Y557212D02*
X575707Y557212D01*
X575773Y557546D01*
X576434Y559141D01*
X577393Y560577D01*
X578613Y561797D01*
X580049Y562756D01*
X581644Y563417D01*
X581978Y563483D01*
X581978Y557212D01*
X575707Y557212D01*
G37*
%LPD*%
%LPC*%
G36*
X216557Y292372D02*
X216557Y292372D01*
X216623Y292706D01*
X217284Y294301D01*
X218243Y295737D01*
X219463Y296957D01*
X220899Y297916D01*
X222494Y298577D01*
X222828Y298643D01*
X222828Y292372D01*
X216557Y292372D01*
G37*
%LPD*%
%LPC*%
G36*
X227272Y287928D02*
X227272Y287928D01*
X233543Y287928D01*
X233477Y287594D01*
X232816Y285999D01*
X231857Y284563D01*
X230637Y283343D01*
X229201Y282384D01*
X227606Y281723D01*
X227272Y281657D01*
X227272Y287928D01*
G37*
%LPD*%
%LPC*%
G36*
X227272Y414928D02*
X227272Y414928D01*
X233543Y414928D01*
X233477Y414594D01*
X232816Y412999D01*
X231857Y411563D01*
X230637Y410343D01*
X229201Y409384D01*
X227606Y408723D01*
X227272Y408657D01*
X227272Y414928D01*
G37*
%LPD*%
%LPC*%
G36*
X80407Y237172D02*
X80407Y237172D01*
X80473Y237506D01*
X81134Y239101D01*
X82093Y240537D01*
X83313Y241757D01*
X84749Y242716D01*
X86344Y243377D01*
X86678Y243443D01*
X86678Y237172D01*
X80407Y237172D01*
G37*
%LPD*%
%LPC*%
G36*
X470557Y495572D02*
X470557Y495572D01*
X470623Y495906D01*
X471284Y497501D01*
X472243Y498937D01*
X473463Y500157D01*
X474899Y501116D01*
X476494Y501777D01*
X476828Y501843D01*
X476828Y495572D01*
X470557Y495572D01*
G37*
%LPD*%
%LPC*%
G36*
X575707Y383222D02*
X575707Y383222D01*
X575773Y383556D01*
X576434Y385151D01*
X577393Y386587D01*
X578613Y387807D01*
X580049Y388766D01*
X581644Y389427D01*
X581978Y389493D01*
X581978Y383222D01*
X575707Y383222D01*
G37*
%LPD*%
%LPC*%
G36*
X481272Y516528D02*
X481272Y516528D01*
X487543Y516528D01*
X487477Y516194D01*
X486816Y514599D01*
X485857Y513163D01*
X484637Y511943D01*
X483201Y510984D01*
X481606Y510323D01*
X481272Y510257D01*
X481272Y516528D01*
G37*
%LPD*%
%LPC*%
G36*
X586422Y552768D02*
X586422Y552768D01*
X592693Y552768D01*
X592627Y552434D01*
X591966Y550839D01*
X591007Y549403D01*
X589787Y548183D01*
X588351Y547224D01*
X586756Y546563D01*
X586422Y546497D01*
X586422Y552768D01*
G37*
%LPD*%
%LPC*%
G36*
X470557Y520972D02*
X470557Y520972D01*
X470623Y521306D01*
X471284Y522901D01*
X472243Y524337D01*
X473463Y525557D01*
X474899Y526516D01*
X476494Y527177D01*
X476828Y527243D01*
X476828Y520972D01*
X470557Y520972D01*
G37*
%LPD*%
%LPC*%
G36*
X80407Y541972D02*
X80407Y541972D01*
X80473Y542306D01*
X81134Y543901D01*
X82093Y545337D01*
X83313Y546557D01*
X84749Y547516D01*
X86344Y548177D01*
X86678Y548243D01*
X86678Y541972D01*
X80407Y541972D01*
G37*
%LPD*%
%LPC*%
G36*
X91122Y232728D02*
X91122Y232728D01*
X97393Y232728D01*
X97327Y232394D01*
X96666Y230799D01*
X95707Y229363D01*
X94487Y228143D01*
X93051Y227184D01*
X91456Y226523D01*
X91122Y226457D01*
X91122Y232728D01*
G37*
%LPD*%
%LPC*%
G36*
X91122Y537528D02*
X91122Y537528D01*
X97393Y537528D01*
X97327Y537194D01*
X96666Y535599D01*
X95707Y534163D01*
X94487Y532943D01*
X93051Y531984D01*
X91456Y531323D01*
X91122Y531257D01*
X91122Y537528D01*
G37*
%LPD*%
%LPC*%
G36*
X575707Y218122D02*
X575707Y218122D01*
X575773Y218456D01*
X576434Y220051D01*
X577393Y221487D01*
X578613Y222707D01*
X580049Y223666D01*
X581644Y224327D01*
X581978Y224393D01*
X581978Y218122D01*
X575707Y218122D01*
G37*
%LPD*%
%LPC*%
G36*
X586422Y378778D02*
X586422Y378778D01*
X592693Y378778D01*
X592627Y378444D01*
X591966Y376849D01*
X591007Y375413D01*
X589787Y374193D01*
X588351Y373234D01*
X586756Y372573D01*
X586422Y372507D01*
X586422Y378778D01*
G37*
%LPD*%
%LPC*%
G36*
X581644Y207473D02*
X581644Y207473D01*
X580049Y208134D01*
X578613Y209093D01*
X577393Y210313D01*
X576434Y211749D01*
X575773Y213344D01*
X575707Y213678D01*
X581978Y213678D01*
X581978Y207407D01*
X581644Y207473D01*
G37*
%LPD*%
%LPC*%
G36*
X581644Y372573D02*
X581644Y372573D01*
X580049Y373234D01*
X578613Y374193D01*
X577393Y375413D01*
X576434Y376849D01*
X575773Y378444D01*
X575707Y378778D01*
X581978Y378778D01*
X581978Y372507D01*
X581644Y372573D01*
G37*
%LPD*%
%LPC*%
G36*
X581644Y546563D02*
X581644Y546563D01*
X580049Y547224D01*
X578613Y548183D01*
X577393Y549403D01*
X576434Y550839D01*
X575773Y552434D01*
X575707Y552768D01*
X581978Y552768D01*
X581978Y546497D01*
X581644Y546563D01*
G37*
%LPD*%
%LPC*%
G36*
X476494Y510323D02*
X476494Y510323D01*
X474899Y510984D01*
X473463Y511943D01*
X472243Y513163D01*
X471284Y514599D01*
X470623Y516194D01*
X470557Y516528D01*
X476828Y516528D01*
X476828Y510257D01*
X476494Y510323D01*
G37*
%LPD*%
%LPC*%
G36*
X86344Y226523D02*
X86344Y226523D01*
X84749Y227184D01*
X83313Y228143D01*
X82093Y229363D01*
X81134Y230799D01*
X80473Y232394D01*
X80407Y232728D01*
X86678Y232728D01*
X86678Y226457D01*
X86344Y226523D01*
G37*
%LPD*%
%LPC*%
G36*
X222494Y281723D02*
X222494Y281723D01*
X220899Y282384D01*
X219463Y283343D01*
X218243Y284563D01*
X217284Y285999D01*
X216623Y287594D01*
X216557Y287928D01*
X222828Y287928D01*
X222828Y281657D01*
X222494Y281723D01*
G37*
%LPD*%
%LPC*%
G36*
X476494Y484923D02*
X476494Y484923D01*
X474899Y485584D01*
X473463Y486543D01*
X472243Y487763D01*
X471284Y489199D01*
X470623Y490794D01*
X470557Y491128D01*
X476828Y491128D01*
X476828Y484857D01*
X476494Y484923D01*
G37*
%LPD*%
%LPC*%
G36*
X222494Y408723D02*
X222494Y408723D01*
X220899Y409384D01*
X219463Y410343D01*
X218243Y411563D01*
X217284Y412999D01*
X216623Y414594D01*
X216557Y414928D01*
X222828Y414928D01*
X222828Y408657D01*
X222494Y408723D01*
G37*
%LPD*%
%LPC*%
G36*
X86344Y531323D02*
X86344Y531323D01*
X84749Y531984D01*
X83313Y532943D01*
X82093Y534163D01*
X81134Y535599D01*
X80473Y537194D01*
X80407Y537528D01*
X86678Y537528D01*
X86678Y531257D01*
X86344Y531323D01*
G37*
%LPD*%
D10*
X479050Y569550D03*
X453650Y569550D03*
X479050Y544150D03*
X453650Y544150D03*
X479050Y518750D03*
X453650Y518750D03*
X479050Y493350D03*
X453650Y493350D03*
X479050Y467950D03*
X453650Y467950D03*
X479050Y442550D03*
X453650Y442550D03*
X479050Y417150D03*
X453650Y417150D03*
X479050Y391750D03*
X453650Y391750D03*
X479050Y366350D03*
X453650Y366350D03*
X479050Y340950D03*
X453650Y340950D03*
X479050Y315550D03*
X453650Y315550D03*
X479050Y290150D03*
X453650Y290150D03*
X479050Y264750D03*
X453650Y264750D03*
X479050Y239350D03*
X453650Y239350D03*
X479050Y213950D03*
X453650Y213950D03*
X479050Y188550D03*
X453650Y188550D03*
X479050Y163150D03*
X453650Y163150D03*
X479050Y137750D03*
X453650Y137750D03*
X225050Y569550D03*
X199650Y569550D03*
X225050Y544150D03*
X199650Y544150D03*
X225050Y518750D03*
X199650Y518750D03*
X225050Y493350D03*
X199650Y493350D03*
X225050Y467950D03*
X199650Y467950D03*
X225050Y442550D03*
X199650Y442550D03*
X225050Y417150D03*
X199650Y417150D03*
X225050Y391750D03*
X199650Y391750D03*
X225050Y366350D03*
X199650Y366350D03*
X225050Y340950D03*
X199650Y340950D03*
X225050Y315550D03*
X199650Y315550D03*
X225050Y290150D03*
X199650Y290150D03*
X225050Y264750D03*
X199650Y264750D03*
X225050Y239350D03*
X199650Y239350D03*
X225050Y213950D03*
X199650Y213950D03*
X225050Y188550D03*
X199650Y188550D03*
X225050Y163150D03*
X199650Y163150D03*
X225050Y137750D03*
X199650Y137750D03*
D11*
X749300Y197600D03*
X749300Y132600D03*
D10*
X584200Y554990D03*
X584200Y529590D03*
X584200Y504190D03*
X584200Y478790D03*
D12*
X38100Y571500D03*
X38100Y546100D03*
X38100Y520700D03*
X38100Y495300D03*
X38100Y469900D03*
X38100Y444500D03*
X38100Y419100D03*
X38100Y393700D03*
X38100Y368300D03*
X38100Y342900D03*
X38100Y317500D03*
X38100Y292100D03*
X38100Y266700D03*
X38100Y241300D03*
X38100Y215900D03*
X38100Y190500D03*
X38100Y165100D03*
X38100Y139700D03*
X38100Y114300D03*
X38100Y88900D03*
D13*
X38100Y615950D03*
X38100Y44450D03*
X800100Y615950D03*
X800100Y44450D03*
D14*
X692150Y482600D03*
X692150Y457600D03*
X692150Y437600D03*
X692150Y412600D03*
D15*
X719250Y513300D03*
X719250Y381900D03*
D10*
X584200Y381000D03*
X584200Y355600D03*
X584200Y330200D03*
X584200Y304800D03*
X584200Y215900D03*
X584200Y190500D03*
X584200Y165100D03*
X584200Y139700D03*
X88900Y539750D03*
X88900Y514350D03*
X88900Y488950D03*
X88900Y463550D03*
X88900Y234950D03*
X88900Y209550D03*
X88900Y184150D03*
X88900Y158750D03*
D16*
X158750Y50800D03*
M02*
