M48
;GenerationSoftware,Autodesk,EAGLE,9.6.2*%
;CreationDate,2023-12-11T17:29:31Z*%
FMAT,2
ICI,OFF
METRIC,TZ,000.000
T7C0.350
T6C0.800
T5C0.889
T4C0.920
T3C1.000
T2C2.300
T1C3.000
%
G90
M71
T1
X80010Y4445
X80010Y61595
X3810Y4445
X3810Y61595
T2
X71925Y38190
X71925Y51330
T3
X3810Y8890
X3810Y11430
X3810Y13970
X3810Y16510
X3810Y19050
X3810Y21590
X3810Y24130
X3810Y26670
X3810Y29210
X3810Y31750
X3810Y34290
X3810Y36830
X3810Y39370
X3810Y41910
X3810Y44450
X3810Y46990
X3810Y49530
X3810Y52070
X3810Y54610
X3810Y57150
T4
X69215Y41260
X69215Y43760
X69215Y45760
X69215Y48260
T5
X45365Y21395
X47905Y18855
X45365Y18855
X47905Y16315
X45365Y16315
X47905Y13775
X45365Y13775
X22505Y56955
X19965Y56955
X22505Y54415
X19965Y54415
X22505Y51875
X19965Y51875
X22505Y49335
X19965Y49335
X22505Y46795
X19965Y46795
X22505Y44255
X19965Y44255
X22505Y41715
X19965Y41715
X22505Y39175
X19965Y39175
X22505Y36635
X19965Y36635
X22505Y34095
X19965Y34095
X22505Y31555
X19965Y31555
X22505Y29015
X19965Y29015
X22505Y26475
X8890Y15875
X22505Y23935
X19965Y23935
X22505Y21395
X19965Y21395
X22505Y18855
X19965Y18855
X22505Y16315
X19965Y16315
X22505Y13775
X19965Y13775
X8890Y18415
X8890Y20955
X58420Y55499
X58420Y52959
X58420Y50419
X58420Y47879
X47905Y21395
X45365Y23935
X47905Y23935
X45365Y26475
X47905Y26475
X45365Y29015
X47905Y29015
X45365Y31555
X47905Y31555
X45365Y34095
X47905Y34095
X45365Y36635
X47905Y36635
X45365Y39175
X47905Y39175
X45365Y41715
X47905Y41715
X45365Y44255
X47905Y44255
X45365Y46795
X47905Y46795
X45365Y49335
X47905Y49335
X45365Y51875
X47905Y51875
X45365Y54415
X47905Y54415
X45365Y56955
X47905Y56955
X19965Y26475
X58420Y38100
X58420Y35560
X58420Y33020
X58420Y30480
X58420Y21590
X58420Y19050
X58420Y16510
X58420Y13970
X8890Y53975
X8890Y51435
X8890Y48895
X8890Y46355
X8890Y23495
T6
X74930Y13260
X74930Y19760
T7
X15875Y5080
M30